<?xml version="1.0" encoding="UTF-8"?><svg id="Layer_1" xmlns="http://www.w3.org/2000/svg" viewBox="0 0 253.59 156.95"><defs><style>.cls-1{letter-spacing:.01em;}.cls-1,.cls-2,.cls-3,.cls-4,.cls-5,.cls-6,.cls-7,.cls-8,.cls-9{fill:#f4c887;}.cls-1,.cls-3,.cls-4,.cls-5,.cls-8,.cls-9{font-family:NautilusPompilius, NautilusPompilius;}.cls-1,.cls-5{font-size:29.51px;}.cls-2,.cls-6{font-family:ChunkFive-Roman, 'ChunkFive Roman';font-size:25px;}.cls-3{letter-spacing:.02em;}.cls-3,.cls-4,.cls-8,.cls-9{font-size:12.82px;}.cls-4{letter-spacing:.02em;}.cls-10{letter-spacing:.03em;}.cls-5{letter-spacing:0em;}.cls-11{fill:#fff2e1;}.cls-6{letter-spacing:.03em;}.cls-12{fill:#1c263a;}.cls-13{letter-spacing:.03em;}.cls-14{letter-spacing:.03em;}.cls-8{letter-spacing:.02em;}.cls-9{letter-spacing:.02em;}</style></defs><g><g><g><path class="cls-7" d="m61.8,76.71c-.14.41-.29.82-.43,1.23-.14.41-.28.82-.41,1.23-.08.26-.5.14-.41-.12.31-.87.58-1.75.85-2.63-.51-.39-.99-.81-1.4-1.31-.58-.7-1.03-1.48-1.44-2.29-.21-.43-.41-.87-.6-1.31.01-.01.01-.02.01-.03-.07-.02-.14-.04-.21-.07h-.01c-.21-.06-.42-.14-.63-.21-.03.08-.11.15-.23.16-.05.01-.13.01-.23.02-.39.03-1.09.1-1.11.27-.02.16-.25.29-.39.23-.41-.17-1.31-.74-1.4-.01-.01.15-.11.26-.26.27-.36.02-.83-.16-1.09-.08-.06.02-.25.36-.31.42-.11.11-.28.1-.39,0-.3-.24-.59-.49-.86-.76-.16-.16.05-.45.25-.32.49.3.56.68.73.17.04-.13.14-.19.27-.21.12-.01.82.02,1.09.09.04-.2.22-.57.22-.59.05-.07.14-.13.23-.12.37.04.69.22,1.05.27.16.02.25.03.32.04.02,0,.04-.01.09-.01.14-.01.26-.22.42-.24.07-.01.13-.01.2-.01h.01c.15,0,.29.02.44.03-.18-.22.04-.6.36-.53.17.04.33.06.49.09-.01-.1.04-.21.18-.21.63.03,1.24.13,1.87.17.33-.01.66-.08.97-.27.22-.14.35-.42.27-.69-.05-.18-.14-.35-.25-.5-.03-.04-.06-.07-.09-.11.03-.07.03-.15-.03-.22-.01-.01-.02-.02-.03-.03-.11-.15-.23-.29-.37-.43-.31.28-.64.52-.98.72-.16.09-.39-.11-.27-.28.12-.17.24-.33.37-.48s.27-.3.41-.45c-.2-.22-.43-.43-.66-.63-.77-.71-1.57-1.41-2.19-2.32-.63-.94-1.16-1.94-1.66-2.95-.27,0-.5-.02-.5-.07-.08.29-.4.33-.61.16-.29-.27-.63-.43-1.02-.48-.03.08-.06.16-.13.27-.1.18-.34.24-.52.14-.41-.25-.86-.69-1.01-.07-.05.21-.34.29-.49.13-.31-.33-.3-.32-.55-.69-.15-.24.22-.53.4-.31.03.05.09.09.12.13.03-.15.1-.29.29-.37.31-.12,1.26.41,1.28.32.05-.18.24-.27.41-.23.47.09.89.21,1.3.4.54-.66,2.04.4,2.23-1.16-.03-.04-.04-.09-.08-.13-3.45-4.65-5.79-7.63-6.88-11.69-.01-.04-.03-.07-.04-.1-.02.03-.04.06-.05.1-1.09,4.06-3.42,7.04-6.88,11.69-.03.04-.05.09-.07.13.18,1.56,1.69.5,2.22,1.16.41-.19.83-.31,1.3-.4.17-.04.37.05.41.23.02.09.97-.44,1.28-.32.2.08.26.22.29.37.04-.04.09-.08.13-.13.18-.22.54.07.39.31-.25.37-.24.36-.54.69-.15.16-.44.08-.5-.13-.15-.62-.59-.18-1.01.07-.18.1-.41.04-.52-.14-.06-.11-.1-.19-.13-.27-.38.05-.73.21-1.02.48-.21.17-.52.13-.6-.16,0,.05-.23.07-.51.07-.5,1.01-1.03,2.01-1.66,2.95-1.06,1.55-2.61,2.47-3.72,3.9-.06.07-.06.15-.03.22-.15.18-.28.39-.34.61-.08.27.05.55.28.69.3.19.63.26.96.27.63-.04,1.25-.14,1.88-.17.13,0,.18.11.17.21.17-.03.32-.05.49-.09.32-.07.54.31.36.53.21-.02.42-.04.65-.02.16.02.29.23.42.24.05,0,.07.01.09.01.07-.01.17-.02.32-.04.36-.05.68-.23,1.05-.27.1-.01.19.05.23.12h.01c0,.06.17.4.22.59.26-.07.97-.1,1.08-.09.13.02.23.08.27.21.17.51.24.13.73-.17.2-.13.41.16.25.32-.27.27-.55.52-.85.76-.12.1-.29.11-.4,0-.05-.06-.25-.4-.31-.42-.25-.08-.73.1-1.08.08-.16-.01-.25-.12-.27-.27-.09-.73-.99-.16-1.39.01-.15.06-.37-.07-.39-.23-.04-.22-1.12-.26-1.35-.29-.12-.01-.2-.08-.23-.16-.28.1-.57.2-.85.28,0,.01.01.02.01.03-.55,1.27-1.16,2.53-2.04,3.6-1.07,1.31-2.62,2.08-3.94,3.1-.43.34-.2,1.2.34,1.28.46.07.89.03,1.31-.08-.04.06-.08.11-.13.18-.17.27.05.76.41.71.09-.01.16-.04.24-.05.06.12.16.21.32.19.54-.06.78-.08,1.11-.16.6.74,1.47.69,2.27.24.12.3.32.57.71.76,1.12.52,1.97-.59,2.76-.48.27.03.63.55,1.03.59.43.06.57-.08.95-.21.31-.11.56-.21.8-.28.12.05.22.1.29.12.28.11.57-.02.78-.2.19-.01.39-.03.58-.04-.06.7-.04,1.42-.06,2.11-.03.67-.03,1.35-.08,2.02-.04.45-.3,1.05-.29,1.5.03,1.46,2.49,1.28,3.44,1.1.08-.02.15-.05.2-.08.43-.07.76-.3.77-.85.01-.4-.04-.82-.11-1.25-.14-1.47-.29-2.93-.31-4.41.1.06.21.11.33.13.1.01.2.01.3-.03.07-.02.18-.07.29-.12.25.07.49.17.81.28.37.13.51.27.95.21.4-.04.75-.56,1.02-.59.79-.11,1.65,1,2.76.48.05-.03.1-.05.15-.09-.03-.05-.03-.12,0-.18.2-.4.54-.61.69-1.05.06-.18.32-.11.28.08-.04.19-.09.4-.17.6.73.33,1.49.31,2.04-.36.23.06.42.08.7.11,0-.25.07-.5.14-.75.09-.29.21-.57.31-.84.23-.6.45-1.22.68-1.82-.13-.09-.26-.18-.38-.27Zm-5.18-8.51c-.57-.28-.88-1.1-1.08-1.65-.04-.11.12-.17.18-.08.18.3.38.59.61.85.18.21.4.39.52.65.07.15-.07.3-.23.23Zm-1.66-4.15c.51.75,1.07,1.47,1.67,2.16.37.44.82.84,1.2,1.29.11.14.23.28.33.43.1.14-.09.3-.22.22-.16-.09-.31-.19-.47-.31-.29-.22-.58-.48-.84-.77-.12-.13-.24-.26-.37-.4-.01-.01-.02-.03-.03-.04-.12-.15-.24-.31-.36-.47-.12-.15-.23-.32-.34-.48-.16-.23-.32-.47-.46-.7-.16-.25-.31-.5-.45-.73-.14-.22.19-.41.34-.2Zm-2.45-.71c.47,1.03,1.07,2.16,1.26,3.28.02.1-.11.17-.16.07-.53-1.03-.81-2.22-1.25-3.29-.04-.09.11-.15.15-.06Zm.01,1.62c.12.42.25.83.4,1.24.13.36.33.72.36,1.1.01.11-.14.17-.21.09-.23-.29-.32-.67-.44-1.02-.15-.44-.28-.88-.4-1.33-.05-.19.24-.27.29-.08Zm-1.27-5.59c-.35-.55-.53-1.26-.79-1.85-.05-.12.11-.22.17-.1.3.57.71,1.22.84,1.85.03.14-.14.22-.22.1Zm-.78-4.24c.27.46.5.92.75,1.39.2.36.52.73.55,1.15.01.09-.11.16-.18.11-.37-.25-.53-.78-.71-1.17-.23-.46-.42-.92-.57-1.42-.02-.09.11-.14.16-.06Zm-3.42,2.39c-.26.59-.44,1.3-.79,1.85-.07.12-.24.04-.22-.1.13-.63.55-1.28.84-1.85.06-.12.22-.02.17.1Zm-.41-.91c-.19.39-.35.92-.71,1.17-.08.05-.19-.02-.19-.11.03-.42.35-.79.55-1.15.25-.47.49-.93.76-1.39.04-.08.18-.03.15.06-.15.5-.34.96-.56,1.42Zm-5.75,11.59c-.15.07-.3-.08-.23-.23.12-.26.34-.44.52-.65.23-.26.43-.55.61-.85.06-.09.22-.03.18.08-.19.55-.51,1.37-1.08,1.65Zm2.01-3.95c-.82,1.36-1.91,3.09-3.32,3.9-.14.08-.33-.08-.23-.22.43-.63,1.04-1.14,1.54-1.72.59-.69,1.15-1.41,1.67-2.16.14-.21.47-.02.34.2Zm1.01,2.44c-.06.1-.19.03-.17-.07.19-1.12.79-2.25,1.26-3.28.04-.09.19-.03.15.06-.43,1.07-.72,2.26-1.24,3.29Zm.98-.32c-.12.35-.21.73-.45,1.02-.07.08-.22.02-.21-.09.03-.38.24-.74.37-1.1.14-.41.27-.82.39-1.24.05-.19.34-.11.29.08-.12.45-.25.89-.39,1.33Zm-5.94,12.09c-.16.09-.32-.08-.24-.24.16-.32.44-.49.57-.86.05-.15.26-.09.23.07-.08.36-.21.85-.56,1.03Zm.38-2.39c-.46.65-.99,1.49-1.7,1.87-.17.08-.33-.09-.25-.25.36-.74,1.08-1.34,1.56-2.01.5-.69.96-1.41,1.4-2.14.09-.15.36-.05.29.12-.34.86-.76,1.67-1.3,2.41Zm3.07.45c-.1.5-.15,1.08-.41,1.52-.11.17-.34.08-.36-.1-.04-.51.19-1.06.37-1.53.21-.55.41-1.11.62-1.66.06-.13.27-.08.22.06-.17.57-.33,1.13-.44,1.71Zm-.85.19c-.06.21-.41.12-.33-.1.49-1.36.84-2.76,1.36-4.12.09-.22.43-.13.37.11-.4,1.39-.96,2.72-1.4,4.11Zm3.82-1.74c-.05.42-.05.87-.26,1.24-.08.13-.29.11-.32-.04-.11-.42.02-.85.09-1.27.08-.52.16-1.05.24-1.57.04-.26.48-.19.45.06-.07.52-.13,1.05-.2,1.58Zm9.56-2.48c.52,1.36.88,2.76,1.37,4.12.07.22-.27.31-.34.1-.43-1.39-.99-2.72-1.39-4.11-.07-.24.28-.33.36-.11Zm.6,5.55s-.06-.1-.08-.15c0-.01-.01-.01-.01-.02-.04-.1-.08-.2-.11-.31-.11-.34-.15-.71-.21-1.04-.11-.58-.27-1.14-.45-1.71-.04-.14.17-.19.22-.06.21.55.41,1.11.62,1.66.12.33.28.69.34,1.05.03.16.05.32.03.48-.02.18-.25.27-.35.1Zm4.35-.1c-.14-.07-.27-.16-.39-.27-.17-.14-.33-.3-.48-.47-.12.24-.26.47-.42.7h0c.08.1.15.2.21.32.08.16-.08.33-.24.24-.09-.04-.16-.11-.22-.19-.02.05-.05.09-.08.13-.56.78-1.19,1.8-2.06,2.25-.2.11-.39-.1-.3-.3.44-.89,1.31-1.62,1.89-2.43.08-.11.16-.23.24-.35-.01-.05-.02-.09-.03-.14-.03-.14.13-.2.21-.12.15-.2.28-.41.42-.61-.16-.22-.31-.43-.45-.63-.24-.34-.46-.69-.66-1.06-.06-.11-.12-.22-.17-.33-.17-.33-.33-.67-.47-1.02-.07-.17.2-.27.29-.12.16.27.33.54.51.81.03.05.06.1.1.15.12.2.25.4.39.59.13.2.26.4.4.59.11.16.24.31.37.46.01,0,.01.02.02.02.18-.27.35-.55.52-.83.11-.18.44-.06.36.15-.15.38-.32.75-.51,1.11.02.02.04.04.06.07.08.08.15.16.21.25.21.24.39.5.53.78.08.16-.08.33-.25.25Zm4.06.27c-.49-.38-1-.72-1.51-1.06-.1.33-.19.66-.27.99-.07.26-.13.52-.18.79-.05.26-.09.53-.14.8-.02.1-.04.2-.07.3-.03.12-.06.24-.1.35.04-.03.08-.08.1-.13.08.01.16.04.24.05.36.05.58-.44.41-.71-.04-.07-.09-.12-.13-.18.42.11.86.15,1.31.08.55-.08.78-.94.34-1.28Z"/><path class="cls-12" d="m58.94,76.14s.01.02.02.02c-.1.18-.22.36-.33.54-.16-.22-.31-.43-.45-.63-.24-.34-.46-.69-.66-1.06.08-.17.17-.34.26-.51.12.2.25.4.39.59.13.2.26.4.4.59.11.16.24.31.37.46Z"/><path class="cls-12" d="m59.88,77.94c-.14-.07-.27-.16-.39-.27-.17-.14-.33-.3-.48-.47h0c.06-.11.12-.21.17-.31.06-.1.11-.2.15-.3.02.02.04.04.06.07.08.08.15.16.21.25.21.24.39.5.53.78.08.16-.08.33-.25.25Z"/><path class="cls-12" d="m58.21,77.31c-.05.09-.11.18-.18.26-.01-.05-.02-.09-.03-.14-.03-.14.13-.2.21-.12Z"/><path class="cls-12" d="m58.56,78.46c-.09-.04-.16-.11-.22-.19.09-.12.17-.24.25-.36.08.09.15.19.21.31.08.16-.08.33-.24.24Z"/><path class="cls-12" d="m55.88,77.94c-.02.18-.25.27-.35.1-.03-.05-.06-.1-.08-.15.14-.14.28-.28.4-.43.03.16.05.32.03.48Z"/></g><g><path class="cls-7" d="m88.08,80.99c-1.6-1.24-3.48-2.17-4.78-3.76-1.06-1.29-1.8-2.83-2.47-4.36.01-.01.01-.03.02-.04-.35-.09-.69-.22-1.03-.34-.04.11-.14.19-.28.2-.28.03-1.59.09-1.63.35-.03.19-.3.35-.48.27-.49-.2-1.58-.88-1.68,0-.03.18-.14.31-.33.32-.43.03-1-.19-1.31-.09-.08.02-.31.44-.37.51-.14.14-.34.11-.48,0-.37-.29-.71-.6-1.04-.93-.2-.19.06-.54.3-.39.59.38.68.83.89.21.05-.15.17-.23.33-.25.13-.01.98.02,1.31.11.05-.24.27-.7.27-.71.05-.09.16-.17.27-.15.46.04.84.27,1.28.32.19.03.3.04.39.06.02-.01.05-.01.11-.02.16-.01.31-.27.5-.28.28-.03.53,0,.79.01-.21-.27.06-.72.44-.63.21.04.39.07.6.11-.02-.13.04-.26.2-.26.77.03,1.51.16,2.27.2.41-.01.81-.09,1.17-.32.28-.18.43-.51.34-.84-.07-.27-.22-.52-.41-.74.03-.08.03-.18-.04-.27-1.35-1.73-3.22-2.85-4.5-4.72-.77-1.13-1.41-2.34-2.02-3.57-.33,0-.61-.03-.61-.08-.1.34-.48.39-.73.19-.35-.33-.77-.52-1.24-.58-.03.09-.08.19-.16.32-.12.22-.41.29-.62.17-.51-.3-1.05-.83-1.23-.08-.06.25-.42.35-.6.15-.37-.39-.36-.38-.65-.83-.19-.29.25-.64.47-.37.04.06.11.1.15.15.04-.19.12-.35.35-.44.38-.15,1.53.49,1.55.39.06-.23.29-.33.5-.29.57.12,1.08.25,1.57.49.65-.8,2.47.48,2.7-1.41-.03-.05-.05-.11-.09-.16-4.19-5.63-7.01-9.23-8.34-14.15-.01-.05-.03-.09-.05-.13-.02.04-.04.08-.05.13-1.32,4.92-4.15,8.52-8.34,14.15-.04.05-.06.11-.09.16.23,1.89,2.05.61,2.7,1.41.5-.24,1-.37,1.57-.49.21-.04.45.06.5.29.03.1,1.18-.54,1.55-.39.23.09.31.25.35.44.04-.05.11-.09.15-.15.22-.27.66.08.48.37-.3.45-.29.44-.66.83-.18.2-.53.1-.6-.15-.18-.75-.72-.22-1.23.08-.21.12-.5.05-.62-.17-.08-.13-.13-.23-.16-.32-.47.06-.88.25-1.24.58-.25.2-.63.15-.73-.19,0,.05-.28.08-.61.08-.61,1.23-1.25,2.44-2.01,3.57-.64.94-1.43,1.68-2.23,2.41-.19.18-.39.35-.58.53.11.14.23.28.33.43.1.14-.09.3-.22.22-.16-.09-.31-.19-.47-.31-.47.45-.93.92-1.34,1.44-.07.09-.07.19-.03.27-.19.22-.34.47-.42.74-.05.18-.03.35.04.5h.01c.05.14.16.26.29.34.21.13.42.21.64.25.17.05.35.07.53.07.19-.01.37-.03.56-.04h.01c.57-.06,1.13-.14,1.7-.16.16,0,.22.13.21.26.2-.04.39-.07.59-.11.39-.09.65.36.44.63.26-.02.51-.04.79-.01.19.01.34.27.51.28.05.01.08.01.11.02.08-.02.2-.03.38-.06.44-.05.82-.28,1.28-.32.11-.02.23.07.28.16.02.06.21.48.26.7.33-.09,1.18-.12,1.32-.11.16.02.27.1.33.25.2.62.29.17.88-.21.24-.15.5.2.3.39-.32.33-.67.64-1.03.93-.14.11-.35.14-.48,0-.07-.07-.3-.49-.38-.51-.31-.1-.88.12-1.31.09-.19-.01-.3-.14-.32-.32-.11-.88-1.2-.2-1.69,0-.18.08-.45-.08-.47-.27-.04-.26-1.36-.32-1.64-.35-.14-.01-.23-.09-.28-.2-.32.12-.65.24-.98.33,0,0-.03,0-.04,0,0,.01,0,.03.01.04-.24.55-.49,1.09-.75,1.63-.09.17-.18.34-.26.51-.42.79-.89,1.54-1.46,2.22-.06.08-.13.15-.21.23-.12.15-.26.29-.4.43-1.24,1.21-2.8,2.04-4.16,3.1-.02.02-.04.04-.06.06-.45.44-.16,1.4.47,1.49.55.08,1.08.03,1.59-.1-.05.07-.11.13-.16.21-.21.34.06.93.5.87.1,0,.19-.05.29-.07.06.15.19.26.38.24.66-.07.94-.1,1.34-.2.74.9,1.79.84,2.76.3.15.36.38.68.86.91,1.35.63,2.38-.71,3.34-.58.32.04.76.67,1.24.72.53.07.7-.1,1.15-.25.39-.13.68-.25.98-.35.14.07.26.12.35.16.33.12.69-.04.94-.25.24-.02.47-.03.7-.05-.07.85-.04,1.72-.07,2.56-.03.81-.03,1.63-.1,2.44-.05.54-.36,1.28-.35,1.83.05,1.76,3.02,1.54,4.18,1.32.09-.02.17-.06.23-.1.52-.08.93-.36.94-1.03.01-.48-.06-.99-.14-1.5-.16-1.79-.34-3.56-.37-5.34.23.14.5.21.76.12.09-.04.21-.09.35-.16.3.1.59.22.98.35.45.15.63.32,1.15.25.48-.05.92-.68,1.24-.72.96-.13,1.99,1.21,3.34.58.48-.23.72-.55.87-.91.96.54,2.01.6,2.75-.3.4.1.68.13,1.34.2.2.02.32-.09.38-.24.1.02.19.06.29.07.45.06.71-.53.5-.87-.05-.08-.1-.14-.16-.21.51.13,1.04.18,1.6.1.65-.09.93-1.14.41-1.55Zm-8.87-12.13c-.69-.33-1.07-1.33-1.31-2-.05-.13.15-.21.22-.09.22.36.46.71.74,1.03.22.26.48.47.62.78.09.19-.08.37-.27.28Zm-2.02-5.03c.62.91,1.31,1.78,2.02,2.62.6.71,1.34,1.32,1.87,2.08.11.17-.11.37-.28.28-1.71-1-3.03-3.08-4.02-4.74-.16-.26.24-.49.41-.24Zm-2.96-.86c.57,1.25,1.3,2.62,1.53,3.98.02.11-.14.2-.2.08-.64-1.24-.98-2.68-1.52-3.98-.04-.11.14-.18.19-.08Zm.02,1.97c.14.5.3,1.01.47,1.5.16.44.4.87.44,1.34.01.12-.17.2-.25.1-.29-.35-.4-.81-.54-1.23-.18-.53-.34-1.07-.48-1.62-.06-.23.29-.32.36-.09Zm-1.55-6.78c-.42-.66-.64-1.52-.95-2.24-.06-.14.13-.26.2-.12.36.7.87,1.48,1.02,2.25.03.16-.18.26-.27.11Zm-.95-5.13c.33.55.62,1.12.92,1.68.24.44.63.89.66,1.4.01.11-.13.19-.22.13-.44-.31-.63-.94-.86-1.41-.27-.57-.5-1.12-.68-1.72-.04-.11.12-.18.18-.08Zm-4.13,2.89c-.32.72-.53,1.58-.96,2.24-.09.15-.3.05-.27-.11.16-.77.66-1.55,1.02-2.25.07-.14.27-.02.21.12Zm-.51-1.09c-.22.47-.42,1.1-.86,1.41-.09.06-.23-.02-.22-.13.04-.51.42-.96.66-1.4.31-.56.59-1.13.92-1.68.06-.1.22-.03.19.08-.18.6-.42,1.15-.69,1.72Zm-6.95,14.03s-.07.02-.1.02c-.05,0-.11-.02-.14-.06-.04-.04-.06-.08-.06-.14,0-.03,0-.07.02-.1.01-.02.02-.04.03-.06.15-.28.4-.48.6-.72.27-.32.52-.67.74-1.03.06-.12.26-.04.21.09-.23.67-.62,1.67-1.3,2Zm2.42-4.79c-.1.17-.2.34-.31.51-.1.17-.21.35-.32.52-.12.19-.25.39-.39.59-.1.16-.21.32-.33.48-.1.14-.21.28-.32.42-.1.14-.21.28-.33.41-.32.4-.67.77-1.04,1.09-.31.28-.64.52-.98.72-.16.09-.39-.11-.27-.28.12-.17.24-.33.37-.48s.27-.3.41-.45c.36-.38.74-.75,1.08-1.15.72-.84,1.4-1.71,2.02-2.62.17-.25.58-.02.41.24Zm1.22,2.96c-.06.12-.22.03-.2-.08.24-1.36.96-2.73,1.53-3.98.05-.1.23-.03.19.08-.53,1.3-.88,2.74-1.52,3.98Zm1.19-.38c-.14.42-.25.88-.54,1.23-.08.1-.26.02-.25-.1.04-.47.29-.9.44-1.34.18-.49.33-1,.48-1.5.06-.23.41-.14.35.09-.14.55-.3,1.09-.48,1.62Zm-2.79,7.41c.1-.27.53-.16.44.13-.1.37-.22.73-.34,1.09l-.5,1.43c-.14.41-.29.82-.43,1.23-.14.41-.28.82-.41,1.23-.08.26-.5.14-.41-.12.31-.87.58-1.75.85-2.63.25-.79.5-1.58.8-2.36Zm-4.41,3.86c.08-.11.16-.23.24-.35.07-.08.13-.17.18-.26.15-.2.28-.41.42-.61.11-.18.23-.36.33-.54.18-.27.35-.55.52-.83.11-.18.44-.06.36.15-.15.38-.32.75-.51,1.11-.04.1-.09.2-.15.3-.05.1-.11.2-.17.3h0c-.12.25-.26.48-.42.71h0c-.08.13-.16.25-.25.37-.02.05-.05.09-.08.13-.56.78-1.19,1.8-2.06,2.25-.2.11-.39-.1-.3-.3.44-.89,1.31-1.62,1.89-2.43Zm.43,2.91c-.1.2-.23.36-.42.46-.13.07-.25,0-.29-.1-.03-.05-.03-.12,0-.18.2-.4.54-.61.69-1.05.06-.18.32-.11.28.08-.04.19-.09.4-.17.6-.02.06-.05.13-.09.19Zm3.44-.44c-.05.14-.11.27-.18.39-.12.21-.41.1-.43-.12-.01-.09-.01-.18,0-.27,0-.25.07-.5.14-.75.09-.29.21-.57.31-.84.23-.6.45-1.22.68-1.82.03-.06.05-.12.07-.18.06-.16.32-.1.27.07-.03.09-.06.19-.09.28-.1.33-.19.66-.27.99-.07.26-.13.52-.18.79-.05.26-.09.53-.14.8-.02.1-.04.2-.07.3-.03.12-.06.24-.1.35-.01,0-.01.01-.01.01Zm3.92-3.33c-.06.51-.06,1.06-.32,1.51-.09.15-.34.13-.39-.05-.12-.51.03-1.03.11-1.54.1-.64.2-1.27.3-1.91.05-.3.58-.23.54.08-.08.63-.16,1.27-.24,1.91Zm12.3,3.72c-.32-.54-.38-1.24-.49-1.85-.14-.7-.33-1.38-.55-2.06-.05-.17.21-.23.27-.07.26.66.5,1.34.75,2,.22.58.51,1.24.45,1.86-.02.22-.3.33-.43.12Zm.53-1.61c-.53-1.68-1.2-3.29-1.69-4.98-.08-.29.34-.4.44-.13.63,1.65,1.06,3.34,1.65,4.99.09.26-.32.38-.4.12Zm3.15,2.12c-.43-.22-.59-.81-.68-1.25-.04-.19.22-.26.28-.08.16.44.49.65.69,1.05.09.19-.1.38-.29.28Zm1.6-.64c-.87-.45-1.5-1.47-2.06-2.25-.65-.91-1.16-1.89-1.57-2.92-.09-.21.24-.33.35-.15.53.89,1.09,1.76,1.69,2.59.58.81,1.45,1.54,1.89,2.43.1.2-.1.41-.3.3Z"/><path class="cls-12" d="m60.06,68.88s-.11-.02-.14-.06c-.04-.04-.06-.08-.06-.14,0-.03,0-.07.02-.1.01-.02.02-.04.03-.06.01.01.02.02.03.03.06.07.06.15.03.22.03.04.06.07.09.11Z"/></g></g><g><g><path class="cls-7" d="m218.93,78.21c-1.32-1.02-2.88-1.79-3.95-3.1-.88-1.07-1.48-2.33-2.04-3.6.01-.01.01-.02.02-.03-.29-.08-.57-.18-.85-.28-.04.08-.12.15-.23.16-.23.03-1.32.07-1.35.29-.02.16-.25.29-.39.23-.41-.17-1.31-.74-1.4-.01,0,.15-.1.26-.26.27-.36.02-.83-.16-1.09-.08-.06.02-.25.36-.3.42-.12.11-.28.1-.4,0-.3-.24-.59-.49-.85-.76-.17-.16.05-.45.24-.32.49.3.56.68.73.17.05-.13.14-.19.28-.21.11-.01.81.02,1.08.09.04-.19.22-.57.22-.59.05-.07.14-.13.23-.12.38.04.69.22,1.05.27.16.02.25.03.32.04.02,0,.04-.01.09-.01.14-.01.26-.22.42-.24.23-.02.44,0,.65.02-.17-.22.05-.6.36-.53.17.04.33.06.5.09-.02-.1.03-.21.17-.21.63.03,1.24.13,1.87.17.34-.01.66-.08.97-.27.23-.14.35-.42.28-.69-.07-.22-.19-.43-.35-.61.03-.07.03-.15-.03-.22-1.11-1.43-2.66-2.35-3.71-3.9-.64-.94-1.17-1.94-1.67-2.95-.27,0-.5-.02-.5-.07-.08.29-.4.33-.6.16-.3-.27-.64-.43-1.03-.48-.03.08-.06.16-.13.27-.1.18-.34.24-.51.14-.42-.25-.87-.69-1.02-.07-.05.21-.34.29-.49.13-.31-.33-.3-.32-.54-.69-.16-.24.21-.53.39-.31.03.05.09.09.12.13.03-.15.1-.29.29-.37.31-.12,1.26.41,1.28.32.05-.18.24-.27.42-.23.46.09.88.21,1.29.4.54-.66,2.04.4,2.23-1.16-.03-.04-.04-.09-.07-.13-3.46-4.65-5.8-7.63-6.89-11.69-.01-.04-.02-.07-.04-.1-.02.03-.03.06-.04.1-1.1,4.06-3.43,7.04-6.89,11.69-.03.04-.05.09-.07.13.19,1.56,1.69.5,2.23,1.16.41-.19.82-.31,1.29-.4.18-.04.37.05.41.23.03.09.97-.44,1.29-.32.19.08.25.22.28.37.04-.04.09-.08.13-.13.18-.22.55.07.39.31-.25.37-.24.36-.54.69-.15.16-.44.08-.49-.13-.16-.62-.6-.18-1.02.07-.17.1-.41.04-.51-.14-.07-.11-.11-.19-.13-.27-.39.05-.74.21-1.03.48-.21.17-.52.13-.6-.16,0,.05-.23.07-.5.07-.51,1.01-1.03,2.01-1.67,2.95-.62.91-1.41,1.61-2.19,2.31-.23.21-.45.42-.66.63.28.3.56.6.79.94.12.17-.11.37-.28.28-.34-.2-.67-.44-.98-.72-.14.14-.25.27-.37.42.02.02.03.05.04.07.07.16-.04.3-.18.3h-.01c-.11.15-.2.32-.25.5-.07.27.05.55.28.69.3.19.63.26.97.27.63-.04,1.24-.14,1.87-.17.13,0,.19.11.17.21.17-.03.32-.05.49-.09.32-.07.54.31.37.53.14-.01.29-.03.43-.03.07,0,.15,0,.22.01.16.02.28.23.41.24.05,0,.07.01.09.01.07-.01.17-.02.32-.04.37-.05.68-.23,1.06-.27.09-.01.18.05.22.12h.01c.01.06.17.4.22.59.27-.07.97-.1,1.08-.09.13.02.23.08.27.21.17.51.25.13.73-.17.2-.13.42.16.25.32-.27.27-.55.52-.85.76-.12.1-.29.11-.4,0-.05-.06-.25-.4-.31-.42-.25-.08-.72.1-1.08.08-.16-.01-.25-.12-.27-.27-.08-.73-.99-.16-1.39.01-.15.06-.37-.07-.39-.23-.02-.17-.71-.24-1.11-.27-.11-.01-.19-.01-.24-.02-.12-.01-.19-.08-.23-.16-.21.07-.42.15-.62.21-.08.03-.16.05-.23.07.01.01.01.02.01.03-.19.44-.39.88-.6,1.31-.4.81-.86,1.59-1.43,2.29-.41.5-.89.92-1.41,1.31.16.5.31,1,.48,1.5.12.38.24.75.38,1.13.09.26-.33.38-.41.12-.13-.41-.27-.82-.41-1.23-.14-.41-.29-.82-.44-1.23-.13.1-.25.18-.38.27.23.6.45,1.22.69,1.82.03.08.06.17.09.25.1.25.2.52.27.79.02.09.04.17.05.25.02.1.03.19.04.3.28-.03.47-.05.7-.11.55.67,1.31.69,2.04.36-.09-.2-.14-.41-.18-.6-.04-.19.22-.26.29-.08.15.44.49.65.68,1.05,0,0,.02.03,0,.05.02.05.02.09,0,.13.05.04.1.06.15.09,1.11.52,1.96-.59,2.75-.48.27.03.63.55,1.03.59.43.06.57-.08.95-.21.32-.11.56-.21.8-.28.12.05.22.1.3.12.1.04.2.04.3.03.12-.02.23-.07.32-.13-.02,1.48-.17,2.94-.3,4.41-.07.43-.13.85-.12,1.25,0,.55.35.78.78.85.05.03.11.06.19.08.96.18,3.41.36,3.45-1.1.01-.45-.25-1.05-.29-1.5-.06-.67-.06-1.35-.08-2.02-.02-.69-.01-1.41-.06-2.11.19.01.38.03.58.04.2.18.5.31.77.2.07-.02.18-.07.29-.12.25.07.49.17.81.28.37.13.52.27.95.21.4-.04.76-.56,1.02-.59.8-.11,1.65,1,2.76.48.4-.19.59-.46.72-.76.79.45,1.66.5,2.27-.24.33.08.56.1,1.11.16.16.02.26-.07.31-.19.08.01.16.04.24.05.37.05.58-.44.41-.71-.04-.07-.09-.12-.13-.18.42.11.86.15,1.32.08.54-.08.77-.94.34-1.28Zm-7.33-10.01c-.56-.28-.88-1.1-1.08-1.65-.04-.11.13-.17.18-.08.18.3.38.59.61.85.18.21.4.39.52.65.07.15-.07.3-.23.23Zm-1.66-4.15c.51.75,1.08,1.47,1.67,2.16.49.58,1.1,1.09,1.54,1.72.09.14-.1.3-.23.22-1.41-.81-2.5-2.54-3.32-3.9-.14-.22.2-.41.34-.2Zm-2.45-.71c.47,1.03,1.07,2.16,1.27,3.28.01.1-.12.17-.17.07-.53-1.03-.81-2.22-1.25-3.29-.03-.09.11-.15.15-.06Zm.02,1.62c.11.42.24.83.39,1.24.13.36.33.72.36,1.1.01.11-.14.17-.2.09-.24-.29-.33-.67-.45-1.02-.15-.44-.28-.88-.4-1.33-.05-.19.24-.27.3-.08Zm-1.28-5.59c-.35-.55-.53-1.26-.79-1.85-.05-.12.11-.22.17-.1.3.57.72,1.22.84,1.85.03.14-.14.22-.22.1Zm-.78-4.24c.27.46.5.92.76,1.39.19.36.51.73.54,1.15.01.09-.11.16-.18.11-.36-.25-.52-.78-.71-1.17-.22-.46-.42-.92-.56-1.42-.03-.09.1-.14.15-.06Zm-3.42,2.39c-.26.59-.43,1.3-.78,1.85-.08.12-.25.04-.23-.1.13-.63.55-1.28.84-1.85.06-.12.22-.02.17.1Zm-.41-.91c-.19.39-.35.92-.71,1.17-.08.05-.19-.02-.19-.11.03-.42.35-.79.55-1.15.25-.47.49-.93.76-1.39.05-.08.18-.03.15.06-.15.5-.34.96-.56,1.42Zm-5.75,11.59c-.15.07-.3-.08-.22-.23.11-.26.33-.44.51-.65.23-.26.43-.55.61-.85.06-.09.22-.03.18.08-.19.55-.51,1.37-1.08,1.65Zm2.01-3.95c-.56.93-1.26,2.04-2.09,2.91-.11.11-.22.22-.34.32-.14.13-.28.25-.43.36-.15.12-.3.22-.46.31-.14.08-.33-.08-.23-.22.1-.15.22-.29.33-.43.39-.45.83-.85,1.21-1.29.59-.69,1.15-1.41,1.67-2.16.14-.21.47-.02.34.2Zm1.01,2.44c-.05.1-.19.03-.17-.07.19-1.12.79-2.25,1.26-3.28.04-.09.19-.03.16.06-.44,1.07-.73,2.26-1.25,3.29Zm.98-.32c-.12.35-.21.73-.45,1.02-.06.08-.21.02-.21-.09.04-.38.24-.74.37-1.1.14-.41.27-.82.39-1.24.05-.19.34-.11.29.08-.11.45-.24.89-.39,1.33Zm-2.31,6.12c.09-.22.44-.13.37.11-.4,1.39-.96,2.72-1.39,4.11-.07.21-.42.12-.34-.1.49-1.36.84-2.76,1.36-4.12Zm-1.27,8.16c-.86-.45-1.5-1.47-2.06-2.25-.03-.04-.06-.08-.08-.12-.06.08-.13.14-.22.18-.16.09-.31-.08-.24-.24.04-.08.08-.15.13-.21.03-.03.05-.07.09-.1-.16-.23-.3-.47-.43-.71-.26.3-.54.57-.87.74-.16.08-.33-.09-.25-.25.13-.28.32-.54.53-.78.08-.11.17-.22.27-.32-.19-.36-.35-.73-.5-1.11-.09-.21.24-.33.35-.15.17.28.34.56.52.83.14-.16.27-.32.39-.48.25-.34.49-.7.72-1.06.03-.04.06-.08.08-.12.21-.32.41-.64.6-.96.09-.15.36-.05.29.12-.18.46-.39.91-.63,1.34-.2.37-.42.73-.67,1.07-.14.2-.29.41-.45.63.14.21.28.41.43.62.01-.02.02-.03.04-.03.04-.03.09-.02.12.01.04.02.06.07.04.13,0,.05-.02.09-.03.14.08.12.16.24.24.35.59.81,1.46,1.54,1.89,2.43.1.2-.1.41-.3.3Zm.68-2.61c-.1.17-.34.08-.35-.1,0-.05,0-.11,0-.17,0-.08,0-.15.03-.23-.01-.02,0-.05.01-.07.01-.09.03-.18.06-.27.02-.09.05-.18.08-.27.06-.18.13-.36.19-.52.21-.55.41-1.11.63-1.66.05-.13.26-.08.21.06-.17.57-.33,1.13-.44,1.71-.02.11-.04.23-.06.35-.02.1-.04.21-.06.31-.02.11-.04.22-.07.32-.03.13-.07.25-.13.37,0,.01,0,.02,0,.03-.03.05-.05.09-.08.14Zm10.74-1.87c-.04.15-.25.17-.32.04-.22-.37-.21-.82-.27-1.24-.06-.53-.13-1.06-.2-1.58-.03-.25.41-.32.45-.06.08.52.17,1.05.25,1.57.07.42.19.85.09,1.27Zm2.8,1.87c-.27-.44-.32-1.02-.41-1.52-.11-.58-.27-1.14-.45-1.71-.04-.14.17-.19.22-.06.21.55.41,1.11.62,1.66.18.47.42,1.02.37,1.53-.02.18-.25.27-.35.1Zm.43-1.33c-.43-1.39-.99-2.72-1.39-4.11-.07-.24.28-.33.37-.11.52,1.36.87,2.76,1.36,4.12.07.22-.27.31-.34.1Zm2.6,1.75c-.35-.18-.48-.67-.56-1.03-.03-.16.19-.22.24-.07.12.37.4.54.56.86.08.16-.08.33-.24.24Zm1.32-.52c-.71-.38-1.23-1.22-1.7-1.87-.53-.74-.95-1.55-1.3-2.41-.06-.17.21-.27.3-.12.44.73.9,1.45,1.39,2.14.48.67,1.2,1.27,1.56,2.01.08.16-.08.33-.25.25Zm-24.12,2.16c-.02-.07-.04-.15-.05-.22-.07-.32-.12-.64-.17-.95-.11-.6-.28-1.19-.46-1.78-.51.35-1.03.69-1.51,1.06-.43.34-.2,1.2.34,1.28.46.07.9.03,1.32-.08-.05.06-.09.11-.13.18-.17.27.04.76.41.71.08-.01.16-.04.24-.05.02.04.04.08.08.11-.02-.09-.05-.17-.07-.26Z"/><path class="cls-12" d="m193.91,77.91c.07.13.15.25.24.37-.06.08-.13.14-.22.18-.16.09-.31-.08-.24-.24.04-.08.08-.15.13-.21.03-.03.05-.07.09-.1Z"/><path class="cls-12" d="m194.49,77.43s-.02.09-.03.14c-.06-.08-.12-.16-.17-.24h0s.02-.04.04-.04c.04-.03.09-.02.12.01.04.03.05.08.04.13Z"/></g><path class="cls-7" d="m201.27,81.05l-.06-.06c-1.36-1.05-2.92-1.88-4.16-3.09-.03.05-.05.09-.08.14-.1.17-.34.08-.35-.1,0-.05,0-.11,0-.17,0-.08,0-.15.03-.23-.01-.02,0-.05.01-.07-.08-.08-.15-.16-.22-.24-.56-.69-1.04-1.44-1.45-2.23-.2.37-.42.73-.67,1.07-.14.2-.29.41-.45.63.14.21.28.41.43.62h0c.05.09.11.17.17.25.08.12.16.24.24.35.59.81,1.46,1.54,1.89,2.43.1.2-.1.41-.3.3-.86-.45-1.5-1.47-2.06-2.25-.03-.04-.06-.08-.08-.12-.09-.12-.17-.24-.24-.37-.16-.23-.3-.47-.43-.71-.26.3-.54.57-.87.74-.16.08-.33-.09-.25-.25.13-.28.32-.54.53-.78.08-.11.17-.22.27-.32-.19-.36-.35-.73-.5-1.11-.09-.21.24-.33.35-.15.17.28.34.56.52.83.14-.16.27-.32.39-.48.25-.34.49-.7.72-1.06.03-.04.06-.08.08-.12-.27-.54-.52-1.08-.76-1.63.01-.01.01-.03.02-.04-.02,0-.03,0-.05,0-.32-.09-.66-.22-.98-.33-.04.11-.14.19-.28.2-.28.03-1.59.09-1.63.35-.03.19-.3.35-.47.27-.49-.2-1.59-.88-1.69,0-.02.18-.13.31-.32.32-.44.03-1.01-.19-1.32-.09-.07.02-.31.44-.37.51-.14.14-.34.11-.48,0-.37-.29-.71-.6-1.03-.93-.21-.19.06-.54.3-.39.58.38.67.83.88.21.05-.15.17-.23.33-.25.14-.01.99.02,1.31.11.06-.24.27-.71.27-.71.05-.09.16-.17.28-.15.45.04.83.27,1.27.32.19.03.3.04.39.06.02-.01.05-.01.11-.02.16-.01.31-.27.51-.28.27-.03.53,0,.78.01-.21-.27.06-.72.44-.63.21.04.4.07.6.11-.02-.13.04-.26.21-.26.58.02,1.14.1,1.71.16.18.02.37.03.55.04.18,0,.36-.02.54-.07.22-.04.43-.12.64-.25.13-.08.23-.2.28-.34.08-.15.1-.32.05-.5-.07-.27-.22-.52-.41-.74.04-.08.03-.18-.04-.27-.41-.53-.86-1-1.34-1.44-.15.12-.3.22-.46.31-.14.08-.33-.08-.23-.22.1-.15.22-.29.33-.43-.19-.18-.39-.36-.58-.54-.8-.72-1.58-1.47-2.22-2.4-.77-1.13-1.41-2.34-2.02-3.57-.33,0-.6-.03-.6-.08-.1.34-.48.39-.74.19-.35-.33-.77-.52-1.24-.58-.03.09-.08.19-.16.32-.12.22-.41.29-.62.17-.51-.3-1.05-.83-1.23-.08-.06.25-.41.35-.59.15-.37-.39-.36-.38-.66-.83-.19-.29.25-.64.47-.37.05.06.11.1.16.15.03-.19.11-.35.34-.44.38-.15,1.53.49,1.55.39.06-.23.29-.33.51-.29.56.12,1.07.25,1.56.49.66-.8,2.48.48,2.7-1.41-.03-.05-.05-.11-.09-.16-4.18-5.63-7.01-9.23-8.33-14.15-.02-.05-.04-.09-.06-.13-.02.04-.03.08-.05.13-1.32,4.92-4.15,8.52-8.34,14.15-.04.05-.06.11-.09.16.23,1.89,2.05.61,2.7,1.41.5-.24,1-.37,1.57-.49.21-.04.45.06.5.29.03.1,1.18-.54,1.55-.39.24.09.32.25.35.44.05-.05.11-.09.15-.15.22-.27.67.08.48.37-.3.45-.29.44-.66.83-.18.2-.53.1-.59-.15-.19-.75-.73-.22-1.23.08-.22.12-.5.05-.63-.17-.08-.13-.12-.23-.15-.32-.48.06-.89.25-1.25.58-.25.2-.63.15-.73-.19,0,.05-.27.08-.61.08-.6,1.23-1.24,2.44-2.01,3.57-1.28,1.87-3.16,2.99-4.5,4.72-.08.09-.08.19-.04.27-.19.22-.34.47-.42.74-.09.33.06.66.34.84.37.23.77.31,1.17.32.76-.04,1.51-.17,2.27-.2.16,0,.23.13.21.26.2-.04.39-.07.6-.11.38-.09.65.36.44.63.25-.02.5-.04.78-.01.2.01.34.27.51.28.06.01.08.01.11.02.08-.02.2-.03.38-.06.44-.05.82-.28,1.28-.32.11-.02.22.06.28.15,0,.03.22.48.27.71.32-.09,1.17-.12,1.31-.11.16.02.28.1.33.25.2.62.29.17.88-.21.24-.15.5.2.3.39-.32.33-.67.64-1.03.93-.14.11-.34.14-.48,0-.07-.07-.3-.49-.37-.51-.31-.1-.89.12-1.32.09-.19-.01-.3-.14-.32-.32-.11-.88-1.2-.2-1.69,0-.17.08-.45-.08-.47-.27-.04-.26-1.36-.32-1.63-.35-.15-.01-.24-.09-.28-.2-.34.12-.69.25-1.03.34.01.01.01.03.01.04-.67,1.53-1.4,3.07-2.46,4.36-1.3,1.59-3.18,2.52-4.78,3.76-.53.41-.25,1.46.41,1.55.55.08,1.08.03,1.59-.1-.05.07-.11.13-.16.21-.2.34.06.93.5.87.1,0,.19-.05.29-.07.07.15.19.26.38.24.66-.07.95-.1,1.34-.2.74.9,1.79.84,2.76.3.15.36.38.68.86.91,1.35.63,2.38-.71,3.34-.58.33.04.76.67,1.24.72.53.07.7-.1,1.16-.25.38-.13.67-.25.97-.35.14.07.27.12.36.16.26.09.53.02.76-.12-.03,1.78-.21,3.55-.37,5.34-.09.51-.16,1.02-.15,1.5.02.67.42.95.94,1.03.07.04.14.08.24.1,1.16.22,4.13.44,4.17-1.32,0-.55-.3-1.29-.35-1.83-.07-.81-.06-1.63-.09-2.44-.03-.84-.01-1.71-.08-2.56.24.02.47.03.7.05.25.21.61.37.94.25.09-.04.22-.09.36-.16.29.1.59.22.97.35.46.15.63.32,1.15.25.49-.05.92-.68,1.24-.72.96-.13,2,1.21,3.34.58.49-.23.72-.55.87-.91.97.54,2.02.6,2.75-.3.4.1.68.13,1.34.2.2.02.32-.09.39-.24.09.02.19.06.29.07.44.06.7-.53.49-.87-.05-.08-.1-.14-.15-.21.5.13,1.03.18,1.59.1.63-.09.91-1.05.47-1.49Zm-10.24-14.19c-.04-.13.15-.21.22-.09.22.36.46.71.74,1.03.15.18.33.34.46.52.05.06.09.12.12.18,0,0,.01,0,.01.01.02.02.03.05.04.07.07.16-.04.3-.18.3h-.01s-.06,0-.09-.02c-.69-.33-1.07-1.33-1.31-2Zm-.71-3.03c.63.91,1.31,1.78,2.03,2.62.33.4.71.76,1.07,1.14.28.3.56.6.79.94.12.17-.11.37-.28.28-.34-.2-.67-.44-.98-.72-.66-.58-1.25-1.31-1.78-2.05-.16-.22-.31-.45-.45-.67-.29-.44-.56-.89-.81-1.3-.16-.26.24-.49.41-.24Zm-2.96-.86c.57,1.25,1.3,2.62,1.53,3.98.02.11-.14.2-.2.08-.64-1.24-.98-2.68-1.51-3.98-.05-.11.13-.18.18-.08Zm.02,1.97c.14.5.3,1.01.47,1.5.16.44.41.87.44,1.34.01.12-.17.2-.25.1-.29-.35-.39-.81-.54-1.23-.18-.53-.33-1.07-.48-1.62-.06-.23.29-.32.36-.09Zm-1.55-6.78c-.42-.66-.64-1.52-.95-2.24-.06-.14.13-.26.2-.12.36.7.87,1.48,1.02,2.25.03.16-.18.26-.27.11Zm-.95-5.13c.33.55.62,1.12.92,1.68.24.44.63.89.66,1.4.01.11-.13.19-.22.13-.44-.31-.63-.94-.86-1.41-.27-.57-.5-1.12-.68-1.72-.03-.11.13-.18.18-.08Zm-4.13,2.89c-.32.72-.53,1.58-.95,2.24-.1.15-.31.05-.27-.11.15-.77.65-1.55,1.01-2.25.07-.14.27-.02.21.12Zm-.51-1.09c-.22.47-.41,1.1-.86,1.41-.08.06-.22-.02-.22-.13.04-.51.42-.96.66-1.4.31-.56.6-1.13.92-1.68.06-.1.22-.03.19.08-.18.6-.42,1.15-.69,1.72Zm-6.95,14.03c-.19.09-.37-.09-.28-.28.14-.31.41-.52.63-.78.28-.32.52-.67.74-1.03.07-.12.26-.04.22.09-.24.67-.63,1.67-1.31,2Zm2.43-4.79c-1,1.66-2.32,3.74-4.02,4.74-.17.09-.4-.11-.28-.28.52-.76,1.26-1.37,1.86-2.08.72-.84,1.4-1.71,2.02-2.62.18-.25.58-.02.42.24Zm1.22,2.96c-.06.12-.22.03-.2-.08.23-1.36.95-2.73,1.53-3.98.04-.1.22-.03.18.08-.53,1.3-.88,2.74-1.51,3.98Zm1.18-.38c-.14.42-.25.88-.54,1.23-.08.1-.26.02-.25-.1.04-.47.29-.9.44-1.34.18-.49.34-1,.48-1.5.06-.23.41-.14.35.09-.14.55-.3,1.09-.48,1.62Zm-7.18,14.64c-.2.1-.39-.09-.29-.28.19-.4.53-.61.68-1.05.06-.18.32-.11.29.08-.1.44-.26,1.03-.68,1.25Zm.46-2.89c-.56.78-1.2,1.8-2.06,2.25-.2.11-.4-.1-.3-.3.43-.89,1.3-1.62,1.88-2.43.61-.83,1.17-1.7,1.7-2.59.11-.18.43-.06.35.15-.42,1.03-.92,2.01-1.57,2.92Zm3.71.53c-.12.61-.17,1.31-.5,1.85-.12.21-.4.1-.42-.12-.06-.62.22-1.28.44-1.86.26-.66.5-1.34.75-2,.07-.16.32-.1.27.07-.21.68-.41,1.36-.54,2.06Zm-1.02.24c-.08.26-.5.14-.41-.12.59-1.65,1.02-3.34,1.65-4.99.11-.27.53-.16.45.13-.49,1.69-1.17,3.3-1.69,4.98Zm13.53-.65c-.04.18-.29.2-.38.05-.27-.45-.26-1-.33-1.51-.08-.64-.16-1.28-.24-1.91-.04-.31.5-.38.54-.08.1.64.2,1.27.31,1.91.08.51.23,1.03.1,1.54Zm2.68-4.46c.3.78.55,1.57.79,2.36.16.5.31,1,.48,1.5.12.38.24.75.38,1.13.09.26-.33.38-.41.12-.13-.41-.27-.82-.41-1.23-.14-.41-.29-.82-.44-1.23-.15-.42-.3-.84-.44-1.27-.14-.41-.28-.83-.4-1.25-.08-.29.34-.4.45-.13Zm1.14,6.6c-.02.22-.3.33-.43.12-.07-.12-.13-.25-.18-.39-.01-.01-.01-.02-.02-.03-.02-.09-.05-.17-.07-.26-.02-.07-.04-.15-.05-.22-.07-.32-.12-.64-.17-.95-.11-.6-.28-1.19-.46-1.78-.02-.09-.05-.19-.08-.28-.06-.17.2-.23.26-.07.02.06.05.12.07.18.23.6.45,1.22.69,1.82.03.08.06.17.09.25.1.25.2.52.27.79.02.09.04.17.05.25.02.1.03.19.04.3,0,.09,0,.18-.01.27Zm3.47.62c-.06.04-.14.05-.22.01-.06-.03-.11-.07-.16-.11-.03-.03-.07-.06-.09-.1-.04-.03-.07-.08-.09-.12-.03-.04-.05-.08-.07-.12-.04-.07-.07-.13-.09-.2-.09-.2-.14-.41-.18-.6-.04-.19.22-.26.29-.08.15.44.49.65.68,1.05,0,0,.02.03,0,.05.02.05.02.09,0,.13-.02.04-.05.07-.08.09Z"/></g></g><g><text class="cls-5" transform="translate(98.67 79.83)"><tspan x="0" y="0">L</tspan></text><text class="cls-1" transform="translate(120.65 79.83) scale(.7)"><tspan x="0" y="0">AC</tspan></text></g><g><text class="cls-4" transform="translate(107.05 92.38)"><tspan x="0" y="0">D</tspan></text><text class="cls-3" transform="translate(117.85 92.38) scale(.7)"><tspan x="0" y="0">E</tspan></text><text class="cls-9" transform="translate(124.71 92.38)"><tspan x="0" y="0" xml:space="preserve"> L</tspan></text><text class="cls-8" transform="translate(139.11 92.38) scale(.7)"><tspan x="0" y="0">A</tspan></text></g><g><path class="cls-11" d="m30.38,105.32c-.3-4.05-.66-8.96-.64-12.57-.05,0-.1-.02-.16-.02-1.16,3.22-2.58,6.68-4.31,10.63-2.02,4.64-4.04,9.45-6.07,14.46-1.15,0-2.29-.01-3.43-.02-1.92-5.04-3.83-10.26-5.73-15.68-1.67-4.81-3.08-9.35-4.07-13.55-.03,0-.07-.01-.1-.02-.09,4.19-.34,9.81-.64,14.86-.3,4.82-.6,9.66-.91,14.54-1.44,0-2.88-.01-4.32-.02.82-11.69,1.62-23.2,2.41-34.53,1.9.44,3.8.87,5.71,1.29,1.99,5.8,3.99,11.38,6,16.76,1.47,4.1,2.68,7.64,3.59,10.92.05,0,.1,0,.16,0,.86-3.12,2.09-6.46,3.62-10.15,2.04-4.72,4.07-9.25,6.1-13.61,1.92.35,3.83.69,5.75,1.02.82,9.59,1.65,19.06,2.48,28.41-1.47,0-2.95,0-4.42-.01-.34-4.21-.67-8.45-1.01-12.71Z"/><path class="cls-11" d="m72.62,106.28c.1,7.9-7.18,12.14-16.14,12.22-9.27.11-15.84-5.46-15.94-13.83-.1-8.79,6.74-13.28,16.11-11.94,9.59,1.32,15.87,6.73,15.96,13.56Zm-27.24-1.32c.07,5.72,4.19,10.88,11.33,10.9,7.18.04,11.19-4.37,11.12-9.7-.06-4.68-3.78-9.9-11.34-10.84-7.5-.96-11.18,3.75-11.11,9.63Z"/><path class="cls-11" d="m78.66,118.13c-.09-7.55-.19-15.1-.28-22.65,1.65.15,3.31.28,4.97.41,3.81,4.05,7.61,7.91,11.41,11.64,2.63,2.59,4.69,4.86,6.37,7.04.03-.01.07-.02.1-.03-.44-2.83-.56-5.41-.59-8.71-.02-2.95-.05-5.91-.07-8.86,1.43.07,2.86.13,4.3.19.05,7,.1,13.99.14,20.99-1.53,0-3.06,0-4.58,0-3.74-3.59-7.5-7.26-11.26-11.09-2.48-2.51-4.86-5.16-6.66-7.7-.05,0-.1.01-.16.02.29,2.83.43,5.52.47,9.22.04,3.18.07,6.35.11,9.53-1.42,0-2.85,0-4.27,0Z"/><path class="cls-11" d="m119.54,99.82c-3.58-.04-7.16-.12-10.74-.22,0-.76,0-1.53-.01-2.29,8.72.28,17.44.36,26.16.23,0,.75,0,1.51,0,2.26-3.6.05-7.19.06-10.79.05,0,6.1.01,12.2.02,18.31-1.53,0-3.05,0-4.58,0-.01-6.11-.03-12.23-.04-18.34Z"/><path class="cls-11" d="m140.6,111.64c-1.23,2.18-2.45,4.36-3.67,6.52-1.56,0-3.12,0-4.69,0,3.99-6.86,8-13.76,12.04-20.83,1.83-.06,3.67-.13,5.5-.2,3.97,6.84,7.91,13.81,11.83,21.02-1.61,0-3.23,0-4.84,0-1.23-2.24-2.46-4.46-3.7-6.66-4.16.07-8.31.11-12.47.15Zm11.55-2.27c-1.13-2.01-2.27-4-3.4-5.98-.77-1.35-1.29-2.57-1.81-3.77-.03,0-.07,0-.1,0-.53,1.26-1.12,2.55-1.8,3.83-1.16,2.04-2.32,4.06-3.48,6.08,3.53-.04,7.07-.1,10.6-.16Z"/><path class="cls-11" d="m192.7,117.01c-2.04.53-6.06,1.35-10.8,1.35-5.31,0-9.67-.89-13.09-2.92-3-1.81-4.85-4.68-4.81-8.07.12-6.47,7.39-11.61,19.2-12.9,4.07-.43,7.25-.2,8.75.14-.38.9-.75,1.79-1.13,2.68-1.87-.39-4.21-.6-7.76-.27-8.56.83-14.2,4.53-14.26,10.05-.06,5.58,5.26,8.85,13.44,8.8,2.97-.03,5-.34,6.05-.71.03-2.38.06-4.77.1-7.15-2.38.12-4.76.22-7.14.33.01-.8.02-1.61.03-2.41,3.86-.2,7.72-.43,11.57-.68-.05,3.92-.1,7.85-.16,11.77Z"/><path class="cls-11" d="m199.61,118.09c.11-8.45.22-16.9.33-25.35,1.65-.22,3.3-.45,4.94-.68,3.69,3.85,7.38,7.93,11.07,12.3,2.56,3.04,4.56,5.92,6.2,8.81.03-.02.07-.03.1-.05-.38-3.83-.45-7.31-.4-11.78.04-4,.08-8,.12-12.01,1.42-.25,2.83-.5,4.25-.76-.09,9.81-.17,19.63-.26,29.44-1.53,0-3.05,0-4.58.01-3.67-4.83-7.32-9.35-10.98-13.59-2.41-2.8-4.71-5.56-6.44-8.15-.05.02-.1.04-.16.06.22,3.23.28,6.34.23,10.65-.05,3.69-.09,7.39-.14,11.08-1.42,0-2.85,0-4.27,0Z"/><path class="cls-11" d="m252.04,101.65c-4.52.5-9.04.97-13.57,1.42-.02,3.82-.04,7.65-.06,11.47,5.06-.13,10.12-.26,15.18-.41v3.8c-6.58.02-13.15.05-19.73.07.07-10.31.14-20.61.21-30.92,6.27-1.24,12.52-2.6,18.75-4.06,0,1.26,0,2.52,0,3.78-4.75.99-9.51,1.93-14.28,2.81-.02,3.35-.04,6.7-.05,10.05,4.52-.54,9.04-1.12,13.55-1.73,0,1.24,0,2.47,0,3.71Z"/></g><g><path class="cls-11" d="m186.18,36.27c-1.72-2.71-3.38-5.07-5.47-7.14-.82-.81-1.64-.63-2.3-1.05-.66-.42-1.22-.54-1.64-.89-2.9-2.37-5.38-4.77-7.43-7.86-1.7-2.57-3.13-5-5.98-6.44-.27-.79-1.1-1.6-1.98-1.48-3.84.54-5.67,3.93-7.7,6.72-2.03,2.79-3.7,5.22-5.45,8.08-4.53-6.56-9.23-12.93-14.39-19.02-.44-.89-.93-1.9-1.38-2.75-1.11-2.09-1.9-3.32-4.1-4.34-.7-.33-1.12.22-1.7.49-1.23.56-2.1,1.31-2.83,2.39-.73,1.08-1.4,1.91-2.04,2.95-3.78,6.16-6.98,12.22-12.25,17.3-.45.44-1.31.76-1.81,1.29-.13.14-.3.37-.53.5-4.19,2.48-7.59,5.65-10.76,9.36-.68-.48-1.39-.67-1.98-1.32-.59-.65-1.23-1.43-2.05-1.93-.21-.13-.48-.13-.66-.32-1.66-1.76-2.62-3.05-4.03-5.33s-2.67-6.91-5.68-7.9c-1.92-.63-2.62.78-3.53,2.09-.34.49-.88.77-1.35,1.28-2.11,2.26-4.11,4.65-6.3,6.93-1.04,1.08-2.11,2.4-3.13,3.55-1.03,1.15-2.24,2.21-3.22,3.39-3.22,3.86-5.21,8.36-7.06,12.98-.16.41.1.55.21.85.11.31-.17.38-.21.86s.73.79,1.08.37c1.86-2.22,3.52-5.16,5.12-7.33s3.08-4.15,4.59-6.02c1.5-1.87,2.86-3.16,4.34-4.8.21-.24.58-.7.61-.67.03.04-.28.57-.42.88-.52,1.16-1.07,2.22-1.62,3.53-.56,1.31-1.04,2.98-1.56,4.43-.19.54.57.93.97.4,1.79-2.4,3.67-4.8,5.41-7.23.12,1.01.18,2.24.5,3.17.32.93,1.48.59,1.62-.26.24-1.45.54-2.9,1.19-4.27.96,1.64,2.4,2.39,3.76,3.66,1.36,1.27,2.07,2.7,2.59,4.54.28,1.01.61,2.25.79,3.32.5,2.94-.19,5.85.32,8.78.15.87,1.46.72,1.7-.05.24-.77.45-1.43.67-2.17.01-.04,0-.05.1-.08.09-.03.25-.03.36-.19.49-.72.76-1.35,1.32-2.1,3.27-4.4,6.08-8.81,10.08-12.81,1.88-1.88,4.19-3.3,6.91-4.64,2.72-1.34,6.92-1.87,9.67-3.69.03-.02.06-.05.11-.07.05-.02.21.06.27,0,.07-.06.01-.24.1-.33,1.84-1.97,2.93-4.39,4.17-6.75.01-.03.02-.06.02-.03-.43,2.43-.83,4.92-.92,7.4-.03.79,1.16.94,1.35.2,1.36-5.39,3.7-10.11,6.41-14.94,1.49,2.09,2.82,4.16,3.88,6.52.82,1.83,1.9,3.73,2.77,5.52.5,1.03.72,2.19,1.19,3.16.92,1.92,2.19,3.61,3.28,5.32,1.09,1.71,2.02,3.18,3,4.91,4.37,7.65,6.54,16.26,10.16,24.24.32.71,1.24.33,1.28-.33.49-7.7-2.1-14.37-5.24-21.29-.02-.03-.04-.06-.05-.09-.92-2.26-1.99-4.43-3.22-6.54-.17-.3-.34-.59-.51-.89,3.1,2.62,6.13,5.33,8.89,8.3.1.11.2.3.24.35.04.05-.11-.2-.08-.17.03.02.09.1.14.15,3.42,3.95,6.56,8.17,10.11,12,.46.5,1.43.02,1.16-.64-2.27-5.71-6.04-10.02-9.98-14.57-2.11-2.44-3.44-5.28-5.39-7.81,1.58-2.35,3.16-4.63,4.89-6.84-.97,2.02-1.81,4.08-2.14,6.29-.1.65.64,1.03,1.02.46,1.3-1.92,2.4-4.15,3.59-6.1.09-.14.26-.56.25-.42-.05.49-.29,1.18-.49,1.85-.2.67.81,1.1,1.21.52.72-1.03,1.23-2.49,1.89-3.38.67-.88,1.07-.9,2.1-.88,1.47,1.38,4.77,6.34,5.53,7.32,2.28,2.92,3.58,3.46,6.18,4.5,4.07,1.62,6.36,2.75,8.86,6.4,1.09,1.6,2.2,3.62,3.35,5.31,2.6,3.82,5.31,7.73,6.95,12.05.22.58,1.02.71,1.18.03.36-1.59.16-3.02-.27-4.59-.06-.22-.03-.45-.14-.68-2.55-5.19-5.48-10.65-8.52-15.45Z"/><path class="cls-11" d="m112.38,33.24c-1.77,1.75-2.61,4.12-3.68,6.24-.6,1.18-.98,2.13-2.08,2.82-.37.23-.83-.3-1.21.04-4.04,3.65-5.35,9.12-6.85,14.13-.24.8.78.9,1.02.25,1.19-3.18,2.4-6.67,4.26-9.53.85-1.31,1.4-2.01,2.83-2.62.26-.11.88.41,1.18.19,1.19-.87,1.47-1.18,2.16-2.65,1.13-2.43,2.89-5.02,4.21-7.53.59-1.13-.91-2.25-1.83-1.34Z"/><path class="cls-11" d="m102.65,37.65c-1.31.46-2.18,1.72-2.91,2.94s-1.39,2.76-1.66,4.16c-.17.86.92,1.25,1.34.28.43-.97,1.24-2.59,1.98-3.47.74-.87,1.84-1.78,2.26-2.64.42-.85-.24-1.55-1.01-1.28Z"/><path class="cls-11" d="m140.26,39.12c-.21-.29-.79-.14-.99-.28-1.7-1.23-2.34-2.18-2.92-4.13-.58-1.94-1.23-3.79-2.07-5.62-.29-.64-1.35-.25-1.12.49,1.02,3.23,2.11,6.67,4.46,9.14,1.32,1.39,2.09,1.84,2.82,3.67.73,1.82,1.39,4.05,2.39,5.84.16.29.56.14.51-.21-.48-3.16-1.17-6.28-3.09-8.9Z"/><path class="cls-11" d="m145.67,53.04c-.65-.94-1.51-.05-1.23.61.28.66.67,1.34.77,1.94.1.6.3,1.17.62,1.43.31.26.51.13.64-.05.84-1.17-.16-2.99-.8-3.93Z"/><path class="cls-11" d="m174.59,39.13c-.43-.87-.83-1.88-1.63-2.71-.8-.83-2.21-1.3-3.08-2.23-1.64-1.73-2.72-4.09-4.52-5.7-.61-.54-1.46.22-.89.86,1.65,1.85,2.63,4.12,4.18,6.04.7.86,1.59,1.18,2.46,1.93.88.75,1.31,2.25,2.43,2.82.65.33,1.48-.15,1.05-1.02Z"/></g><g><text class="cls-6" transform="translate(87.57 150.7)"><tspan x="0" y="0">A</tspan></text><text class="cls-2" transform="translate(103.59 150.7) scale(.7)"><tspan class="cls-14" x="0" y="0">UBE</tspan><tspan class="cls-13" x="44.2" y="0">R</tspan><tspan class="cls-10" x="58.45" y="0">GE</tspan></text></g><g><g><path class="cls-7" d="m92.36,127.51c0-.49.05-.96.12-1.43h-60.06s1.67,2.87,1.67,2.87h58.38c-.07-.47-.12-.95-.12-1.43Z"/><path class="cls-7" d="m160.02,126.07c.07.47.12.95.12,1.43s-.05.96-.12,1.43h58.38l1.67-2.86h0s-60.06,0-60.06,0Z"/></g><polygon class="cls-7" points="104.25 123.32 105.61 126.08 108.65 126.52 106.45 128.66 106.97 131.69 104.25 130.26 101.53 131.69 102.05 128.66 99.85 126.52 102.89 126.08 104.25 123.32"/><polygon class="cls-7" points="115.25 123.32 116.61 126.08 119.65 126.52 117.45 128.66 117.97 131.69 115.25 130.26 112.53 131.69 113.05 128.66 110.85 126.52 113.89 126.08 115.25 123.32"/><polygon class="cls-7" points="126.25 123.32 127.61 126.08 130.65 126.52 128.45 128.66 128.97 131.69 126.25 130.26 123.53 131.69 124.05 128.66 121.85 126.52 124.89 126.08 126.25 123.32"/><polygon class="cls-7" points="137.25 123.32 138.61 126.08 141.65 126.52 139.45 128.66 139.97 131.69 137.25 130.26 134.53 131.69 135.05 128.66 132.85 126.52 135.89 126.08 137.25 123.32"/><polygon class="cls-7" points="148.25 123.32 149.61 126.08 152.65 126.52 150.45 128.66 150.97 131.69 148.25 130.26 145.53 131.69 146.05 128.66 143.85 126.52 146.89 126.08 148.25 123.32"/></g></svg>