<?xml version="1.0" encoding="UTF-8"?><svg id="OBJECTS" xmlns="http://www.w3.org/2000/svg" viewBox="0 0 720.76 412.31"><defs><style>.cls-1{fill:#fff;}.cls-2{fill:#e7c688;}</style></defs><g><path class="cls-1" d="m700.74,197.54l-19.8-9.9-8.84-9.32.72-7.65.24-10.52,32.57,23.58-3.19-5.69-13.36-13.62-11.68-12.75-13.85-7.3-3.51,7.09-7.73,4.2-11.77-6.17-16.11-11.03-11.48-9.05-10.08,11.39-6.88,10.79-8.29-3.12-13.04-14.45-16.28-18.05-10.99-7.96-8.9-8.89-30.81,21.92-7.64,9.27-17.26,12.9-10.37-10.29-20.55-12.32-13.05-1.01-17.89-11.83-11.14-4.8-6.96,11.9-8.32,7.39-16.01,22.34-37.42,23.2-8.64-1.69-11.27-4.31-12.94-8.46-10.49,10.8-5.06,7.93-7.6-3.12-14.82-15.61-12.27-6.84-9.52-12.64-15.12-11.42-9.56,12.97-18.49,15.64-28.35,19.76-9.59-9.07-14.74-19.86-15.36-18.24-13.45-20.2-10.24,8.11-14.02,13.1-8.58-1.87-11.74-4.98-12.05,9.33-11.59,10.07-16.07,30.25-24.6,24.9-12.29,17.53,17.54-12.46,26.47-24.58,22.13-33.46,12.76-7.53,1.69,4.26-2.71,5.39,7.04-.8-.76,6.44-8.97,9.5,6.68-2.12,9.01-6.71-.67-7.42,13.36-9.96,15.13-15.03-1.34,8.12-3.34,5.75-.11,6.52,6.95-7.28,1.56,5.4-.5,10.71-8.68,9.53-8.35,11.64,9.01-7.75,5.67-2.83-.67,8.83-8.01,10.24-2.63,8.35-2.7,5.88,15.34-15.29,11.02-7.43,7.94,8.48,5.43-2.55,26.46,25.07-20.58,17.63-7.74,11.7-8.89,5.44-41.11,22.83-11.93,6.63-8.16,15.33,12.63-13.51,16.84-3.65,18.66-4.04,6.69-5.66,17.02-14.39,12.48-15.8,11.41-5.21-5.94,12.83,23.35,1.73,6.67,6.07,6.22,5.66,19.25-.12-14.87-4.55-2.72-7.41-.29-.37-12.13-15.39,3.34-15.09,6.57,4.44,8.86,5.98-9.07-16.4,8.86-13.01,13.49,7.48,12.66,17.76,4.12,14.73,13.57-.3,19.93,6.79-20.56-14.07-7.58-12.2-10.12-14.79-17.84-10.47,11.31-7.96,21.15,13.44-21.08-20.05-4.69-4.04,10.72-9.64,9.32,9.43-6-12.11-2.36-9.54,16.24,18.49,8.11,9.6,12.63,10.35-6.17.29,3.15,2.65,7.26,3.14,9.92,6.04-11.44,2.35,11.34,6.15,13.19,5.73,6.9,8.17,2.81,6.02-16.74-9.68,5.66,8.16,2.81,5.65,6.32,19.98,35.26,10.76,16,3.67-32.84-19.83-8.7-16.17-.72-8.82,6.96,2.89,11.01,7.84-10.15-11.71-10.58-9.62-3.2-7.78,5.74,1.47-5.66-8.16.88-5.17,12.21,10.94-8.1-10.9-4.05-5.78-1.55-8.12,20.35,18.53,1.07.53,21.41,10.62-.9,7.39,11.02,6.81,8.2,2.2,14.7,11.76,8.93,7.15,13.13,1.89-12.36-7.35-.3-.18-15.9-11.79-12.65-8.23,5.39-3.82-.32-8.11,33.46,21.83,10.93,13.24,11.34,13.74,5.47,8.44,12.71,8.74,14.88,9.28-10.21-12.63-12.65-10.83-6.73-11.45-1.12-1.91-1.66-2.15-2.92-3.77-10.15-13.1-1.96-1.41-6.71-4.81-9.25-8.41-16.35-14.35-9.18-9.15,12.91-10.98,7.77-.22,7.35-7.04,10.2,6.17,14.2,12.7-2.49-4.88-2.44-6.94-7.41-8.51-.62-7.33,5.25,2.35,8.34,6.44-7.72-9.66-8.16-3.76,1.81-5.43,3.92.86-3.87-5.15.25-4.58,5.44,2.81-.1-5.42-3.09-4.78-1.24-6.75,14,12.48,7.87,6.44,3.87,8,8.34,5.57,8.91,3.62,9.12,7.32,8.81,7.08-5.3-6.22-1.18-1.57-7.2-9.56-11.93-6.42-4.06-5.73,6.51.67-2.8-6.4,23.98,26.06,3.65,3.96,19.57,18.79,2.11,3.25,8.36,12.88,24.3,29.93-11.51-21.53-5.69-10.32-5.74-11.67-5.35-4.3-2.84-10.35,5.25-6.49,11.34,1.28,6.37,2.44,5.06,6.16,1.5,8.3,2.19-4.31,9.97,9.04,10.96,20.44-7.26-22.99-4.09-6.18-5.48-5.78-5.23-7.71-5.85-4.2,1.38-6.88,6.97,2.86-8.35-11.34,4.39.27.48-4.52,6.25-11.45,15.39,10.22-6-12.11-2.36-9.54,16.24,18.49,8.11,9.6,12.63,10.35-6.17.29.79,3.28,7.76,4.56,11.78,3.99-11.44,2.35,11.34,6.15,13.19,5.73,6.9,8.17,2.81,6.02-16.74-9.68,9.19,10.78-1.97,5.91,21.04,10.53,7.89,8.22,27.43,12.21-29.29-25.1-9.75-10.32-.72-8.82,6.96,2.89,11.01,7.84-10.15-11.71-10.58-9.62-3.2-7.78,5.74,1.47-5.66-8.16.88-5.17,12.21,10.94-8.1-10.9-4.05-5.78-1.55-8.12,20.35,18.53,22.48,11.15-.9,7.39,9.66,10.71,4.54.24,28.64,16.97,13.13,1.89-12.66-7.53Zm-561.04-45.24l-3.24-4.05-4.05-19.86,5.81,8.11,8.11,10-7.84-5.81,2.03,7.97,8.51,13.11-9.32-9.46Zm223.96,25.01l1.98,2.91-2.55-2.43-7.91-7.53-6.28.96,10.51-4.51,4.86-4.2,2.24-1.94-1.6,2.59-5.18,8.39,3.93,5.77Zm152.33-52.03l-2.22,9.86-1.04,4.6-4.64-1.04-3.54-.8-11.69,6.31,14.53-9.84,3.47-8.11,14.68-12.97-9.55,11.99Zm88.12,33.07l.23,4.16-6.94-6.24,3.24-5.55,3.93-5.78-2.54,8.56,2.08,4.86Zm57.14,3.51l-4.1-2.8,3.78-1.17,1.97-4.2.66,12.69-2.3-4.52Z"/><polygon class="cls-1" points="572.26 231.18 555.04 215.37 566.44 235.12 570.26 240.3 565.65 244.36 561.95 247.61 577.76 245.06 595.39 251.79 583.21 244 572.26 231.18"/></g><g><path class="cls-2" d="m224.7,96.26c-1.56.78-4.18,1.46-6.76,1.75-2.59.29-4.37,2.02-5.49,1.78-.02,0-.03,0-.05-.01-.14-.03-.22-.07-.28-.11,0,0,0,0-.01,0-.17-.11-.17-.24-.55-.32-.55-.11-.8,0-1.2.27-.03.02-.06.04-.08.05,0,0-.01,0-.02.01-.02.01-.04.02-.06.03,0,0,0,0-.01,0-.15.07-.28.07-.54.01-.04,0-.09-.02-.14-.03-.18-.04-.42-.1-.75-.18-1.18-.27-4.09-.74-5.82-.87-1.73-.13-2.54-1.3-2.94-1.3-.41,0-.09.72.6,1.13.26.15.58.35.98.55.66.32,1.68,1.58,2.88,1.68,1.94.16,5.14,1.03,5.57,1.23.43.19.2-.01.27.32.08.34.09.45-.67.67-.76.22-.79.27-.32.6.47.33.08.63.62.93.53.28.86.81,1.44,1.04,0,.08.21.19.22.09.35.13,1.48.53,1.59.56.59.13.82-.36,1.52-.36.7.01,1.09-.85,1.34-1.19.25-.34,1.01-.37.55-.62-.46-.25-2.17-1.07-2.57-1.21-.4-.14-.32-.5.13-.52.45-.01,2.83-.14,5.33-1.21,1.21-.52,2.35-.97,3.35-1.33,1.07-.4,1.35-1.34,2.08-1.57,1.42-.45.71-.42,1.52-1.09.8-.67.47-1,.47-1,0,0,1.04-.91,1.07-1.37.03-.47-1.69.81-3.25,1.59Z"/><path class="cls-2" d="m337.84,4.04c-.59,0-1.76,1.7-4.27,1.88-2.52.19-6.75.87-8.46,1.27-.48.11-.82.2-1.09.26-.08.02-.15.03-.21.05-.38.08-.56.08-.78-.02,0,0-.01,0-.02,0-.03-.01-.06-.03-.09-.05,0,0-.02-.01-.03-.02-.04-.02-.08-.05-.12-.07-.58-.39-.95-.56-1.74-.4-.55.11-.56.3-.8.46,0,0,0,.01-.01,0-.08.06-.2.12-.4.16-.02,0-.04.01-.07.02-1.63.35-4.22-2.16-7.97-2.58-3.76-.42-7.56-1.42-9.82-2.54-2.27-1.13-4.77-2.98-4.73-2.31.04.67,1.56,1.99,1.56,1.99,0,0-.49.48.68,1.46,1.17.97,4.89,3.91,6.44,4.49,1.46.53,2.63.51,4.39,1.28,3.63,1.57,6.35,1.78,7,1.8.65.02.78.54.19.75-.58.21-3.06,1.39-3.74,1.76-.67.37.42.41.79.91.37.49.94,1.74,1.95,1.72,1.01,0,1.35.71,2.21.52.16-.04,1.8-.61,2.31-.81.02.15.33,0,.32-.13.85-.34,1.32-1.1,2.09-1.51.79-.43.22-.87.9-1.35.68-.47.63-.55-.47-.87-1.1-.31-1.03-.73-.41-1,.62-.29,5.47-2,8.28-2.24,1.76-.15,2.86-1.95,3.82-2.42.58-.28,1.04-.57,1.42-.8,1.01-.6,1.46-1.65.87-1.65Z"/><path class="cls-2" d="m197.25,23.51c.15,0,.74-.2,1.59-.5.41-.14.8-.26,1.14-.36.36-.1.68-.18.92-.24.48-.11.24-.12.53-.32.28-.2.18-.32.18-.32,0,0,.37-.27.39-.43.02-.15-.58.23-1.11.44-.53.22-1.41.38-2.27.41-.76.03-1.34.44-1.72.46,0-.1-.09-.12-.23-.22-.14-.1-.2-.19-.35-.1-.07.04-.12.12-.15.22-.37-.05-.82-.69-1.61-.96-.82-.28-1.61-.68-2.06-1.05-.45-.36-.92-.9-.94-.74-.02.15.25.52.25.52,0,0-.13.08.08.36s-.02.22.41.46c.22.13.5.29.82.5.3.19.64.41.99.67.73.53,1.24.89,1.38.93.14.04.15.16,0,.18-.14.02-.75.16-.92.21-.17.05.07.11.13.24.06.13.12.43.35.48.23.05.27.22.47.22.02,0,.15-.02.28-.03.04.08.11.15.22.2.15-.25.19-.04.38-.06.02,0,.07-.02.11-.04.14.06.3.13.32.14.19.06.28-.1.51-.08.23.02.38-.25.47-.36.09-.11.34-.1.2-.19s-.69-.4-.82-.46c-.13-.06-.09-.17.06-.17Z"/><path class="cls-2" d="m501.77,30.32c-.81-.05-2.01-.39-3.11-.88-.97-.43-1.95-.27-2.44-.47.06-.13-.04-.21-.15-.41-.12-.21-.13-.36-.38-.35-.12,0-.22.08-.32.18-.44-.28-.61-1.37-1.44-2.19-.86-.85-1.61-1.85-1.95-2.58-.34-.73-.6-1.69-.72-1.51-.12.18,0,.8,0,.8,0,0-.22.02-.12.5.1.47-.15.26.24.83.2.29.45.67.72,1.12.26.42.55.91.83,1.45.6,1.11,1.01,1.88,1.17,2.02.16.13.09.29-.1.23-.19-.06-1.04-.26-1.28-.3s.02.19.02.38c0,.2-.11.62.15.82.25.2.2.45.45.57.03.01.2.07.37.13,0,.13.04.26.15.38.35-.22.27.06.51.15.03.01.1.02.17.01.14.16.3.35.32.37.2.19.41.05.69.21.28.17.63-.09.81-.16.18-.08.49.09.36-.12-.13-.21-.62-.93-.75-1.08-.13-.15,0-.27.17-.18s1.05.2,2.3.35c.61.07,1.16.16,1.65.25.52.09.96.19,1.31.26.67.15.38,0,.86-.08.48-.08.42-.29.42-.29,0,0,.63-.12.75-.3.12-.18-.87-.07-1.67-.12Z"/><path class="cls-2" d="m568.53,59.62c-.36-.07-1.25.83-2.79.65-1.54-.17-4.17-.23-5.25-.19-.3.01-.52.03-.69.03-.05,0-.09,0-.13,0-.24,0-.35-.01-.47-.1,0,0,0,0-.01,0-.02-.01-.03-.02-.05-.04,0,0,0,0-.01-.01-.02-.02-.04-.04-.06-.06-.31-.3-.51-.44-1.01-.44-.35,0-.37.12-.53.19,0,0,0,0,0,0-.06.03-.13.05-.26.05-.01,0-.03,0-.04,0-1.02.03-2.3-1.78-4.52-2.46-2.22-.68-4.4-1.71-5.64-2.64-1.24-.94-2.54-2.34-2.59-1.92-.05.41.72,1.37.72,1.37,0,0-.35.24.25.95.6.72-.02.58,1.15,1.21.6.32,1.05,1.47,1.92,1.99.82.49,1.75,1.06,2.72,1.72,2.01,1.35,3.73,1.58,4.12,1.66.39.08.41.41.03.47-.38.06-2.01.5-2.45.64-.45.14.21.3.38.64.17.34.37,1.15.98,1.26.61.11.73.58,1.27.56.1,0,1.15-.17,1.48-.23,0,.09.2.03.21-.04.55-.11.92-.51,1.43-.68.52-.17.23-.5.7-.71.46-.21.44-.26-.19-.58-.63-.31-.6-.41-.48-.69.12-.28,3.67.61,6.79-.38,1.5-.48,2.08-1.25,2.33-1.34.68-.25,1.07-.83.71-.9Z"/><path class="cls-2" d="m290.69,52.7c-2.29,1.73-6.32,3.63-10.42,4.88-4.1,1.26-6.47,4.59-8.35,4.54-.03,0-.05,0-.08,0-.23,0-.37-.05-.48-.09,0,0-.01,0-.02,0-.3-.13-.34-.33-.99-.34-.92-.01-1.29.26-1.86.81-.04.04-.08.07-.12.11,0,0-.02.02-.03.02-.03.03-.06.05-.09.07,0,0-.01.01-.02.02-.22.16-.43.2-.87.18-.07,0-.16,0-.24,0-.31-.01-.71-.04-1.27-.06-1.99-.08-6.85.03-9.69.35-2.85.32-4.5-1.33-5.16-1.21-.66.12.07,1.2,1.32,1.65.47.17,1.04.4,1.75.59,1.16.32,3.83,1.79,5.78,2.23,4.3.97,9.1-.16,9.32.36.23.52.28.71-.88,1.28-1.16.58-1.2.68-.34,1.07.86.39.32,1,1.28,1.31.94.3,1.63,1.05,2.64,1.25.01.14.39.24.38.07.61.11,2.55.41,2.74.42,1,.04,1.22-.84,2.35-1.04,1.13-.19,1.5-1.7,1.82-2.33.31-.63,1.52-.91.69-1.18-.83-.27-3.84-1.07-4.53-1.18-.69-.11-.66-.72.06-.88.72-.16,2.29-.9,6.42-2.62,2.27-.94,3.72-2.64,5.24-3.54,1.62-.97,2.61-2,3.73-2.6,2.17-1.15,1.82-2.06,2.92-3.39,1.1-1.33.45-1.76.45-1.76,0,0,1.41-1.78,1.32-2.54-.09-.76-2.49,1.83-4.79,3.56Z"/><path class="cls-2" d="m320,110.92c-1.55.33-4.04.33-6.44-.01-2.4-.34-4.32.78-5.29.31-.01,0-.03-.01-.04-.02-.12-.06-.19-.11-.23-.16,0,0,0,0,0,0-.13-.14-.11-.25-.44-.41-.47-.22-.73-.18-1.14-.03-.03.01-.06.02-.08.03,0,0-.01,0-.02,0-.02,0-.04.01-.06.01,0,0,0,0-.01,0-.15.03-.26,0-.49-.11-.04-.02-.08-.04-.13-.06-.16-.08-.36-.19-.65-.33-1.02-.51-3.57-1.6-5.12-2.12-1.55-.51-2.06-1.74-2.43-1.83-.37-.09-.22.62.34,1.14.21.2.47,1.23.8,1.5.54.44.93,1.33,1.91,1.91,1.53.91,2.31.95,2.66,1.23.35.27,2.73.64,2.74.96,0,.32,0,.42-.73.44-.73.02-.77.06-.4.46.37.4-.04.58.39.97.42.37.63.91,1.11,1.25-.02.07.15.21.18.13.3.2,1.24.81,1.34.86.51.26.81-.13,1.44.03.63.17,1.14-.5,1.43-.74.29-.24.98-.1.61-.43-.38-.33-1.78-1.45-2.11-1.67-.34-.22-.2-.52.21-.43.41.09,2.12-.18,4.57-.56,1.19-.18,2.3-.31,3.28-.4,1.04-.1,1.94-.16,2.64-.2,1.37-.07.72-.21,1.57-.62.85-.41.6-.78.6-.78,0,0,1.11-.56,1.22-.96.11-.4-1.68.33-3.23.65Z"/><path class="cls-2" d="m151.57,45.38c-.69.52-1.91,1.1-3.15,1.48-1.09.33-1.78,1.16-2.32,1.34-.04-.14-.18-.15-.41-.23-.25-.09-.36-.2-.55-.01-.09.09-.13.22-.13.38-.56.08-1.46-.69-2.71-.78-1.29-.09-2.61-.37-3.4-.73-.8-.35-1.68-.95-1.65-.72.02.23.56.66.56.66,0,0-.16.17.25.49.41.32.06.32.78.51.37.1.84.23,1.38.41.51.16,1.08.36,1.7.59,1.27.48,2.15.82,2.37.82.22,0,.27.17.08.25-.2.08-1.03.52-1.26.66-.23.14.15.14.28.3.14.16.35.58.69.56.35-.02.47.22.76.15.03,0,.21-.08.4-.15.09.11.21.18.39.2.13-.42.26-.14.53-.24.04-.01.09-.06.15-.11.23.04.49.08.53.08.3.01.37-.25.71-.31.34-.06.45-.51.55-.7.09-.19.46-.27.21-.36-.25-.08-1.16-.32-1.37-.36-.21-.03-.2-.22.02-.26.22-.05,1-.58,2.12-1.33.55-.37,1.06-.69,1.52-.96.49-.29.92-.53,1.25-.71.66-.35.31-.27.64-.67.33-.4.14-.53.14-.53,0,0,.43-.54.4-.77-.03-.23-.75.55-1.45,1.08Z"/><path class="cls-2" d="m471.7,55.65c-.38.29-1.06.61-1.75.82-.61.19-.99.64-1.29.74-.02-.08-.1-.08-.23-.13-.14-.05-.2-.11-.31,0-.05.05-.07.12-.07.21-.31.04-.81-.38-1.51-.43-.72-.05-1.45-.21-1.89-.4-.44-.2-.93-.53-.92-.4.01.13.31.37.31.37,0,0-.09.1.14.27.23.18.03.18.43.28.2.06.47.13.77.23.28.09.6.2.94.33.7.27,1.19.46,1.32.46.12,0,.15.1.04.14-.11.05-.57.29-.7.37s.08.07.16.17c.08.09.19.32.39.31.19,0,.26.12.42.08.02,0,.12-.04.22-.09.05.06.12.1.22.11.07-.23.15-.08.29-.13.02,0,.05-.03.08-.06.13.02.27.04.29.04.17,0,.21-.14.39-.17.19-.03.25-.29.31-.39.05-.11.26-.15.12-.2-.14-.04-.64-.18-.76-.2-.12-.02-.11-.12,0-.15.12-.03.55-.32,1.18-.74.3-.2.59-.38.84-.53.27-.16.51-.29.7-.39.36-.19.17-.15.36-.37.18-.22.08-.3.08-.3,0,0,.24-.3.22-.43-.02-.13-.42.31-.8.6Z"/><path class="cls-2" d="m399.43,75.13c-1.64.61-4.33,1-6.94,1.01-2.31,0-4.11,1.2-5.25,1.23,0-.3-.26-.39-.66-.68-.43-.31-.58-.6-1.06-.35-.23.12-.37.36-.48.65-1.12-.18-2.42-2.18-4.78-3.08-2.44-.93-4.82-2.24-6.14-3.39-1.33-1.14-2.68-2.81-2.77-2.35-.09.46.7,1.6.7,1.6,0,0-.41.24.21,1.09.62.85-.07.65,1.2,1.44.65.41,1.48.94,2.42,1.59.89.61,1.88,1.32,2.93,2.13,2.16,1.67,3.66,2.84,4.09,2.96.43.12.43.5,0,.53-.43.04-2.29.41-2.81.54-.51.13.21.35.37.74.17.39.33,1.32,1.01,1.49.68.17.78.71,1.39.73.06,0,.46-.03.86-.07.11.26.31.47.63.62.49-.74.59-.12,1.15-.15.08,0,.21-.06.35-.12.42.2.9.43.97.46.57.2.86-.27,1.56-.19.69.09,1.18-.73,1.47-1.04.29-.31,1.05-.26.61-.56-.44-.3-2.05-1.3-2.44-1.49-.38-.18-.26-.54.19-.5.45.04,2.26-.53,4.87-1.34,1.27-.39,2.45-.71,3.49-.96,1.11-.28,2.07-.48,2.83-.63,1.47-.29.76-.35,1.63-.93.88-.58.58-.95.58-.95,0,0,1.14-.79,1.22-1.25.08-.46-1.78.63-3.42,1.23Z"/><path class="cls-2" d="m497.61,82.23c-.81.39-2.16.73-3.49.86-1.18.12-2.04.81-2.62.89-.02-.15-.15-.18-.37-.32-.23-.14-.32-.28-.56-.13-.11.07-.17.2-.21.35-.58-.03-1.34-.99-2.59-1.33-1.29-.35-2.57-.91-3.3-1.42-.73-.52-1.51-1.3-1.53-1.06-.02.24.44.78.44.78,0,0-.2.14.16.55.36.4,0,.34.68.68.35.18.8.4,1.32.69.48.27,1.03.58,1.6.94,1.19.75,2.01,1.27,2.24,1.31.23.04.24.23.03.27-.22.04-1.15.32-1.4.41-.26.09.13.17.23.36.1.19.23.66.59.71.35.05.43.32.74.3.03,0,.23-.04.44-.08.07.13.18.23.35.28.21-.4.3-.09.58-.13.04,0,.1-.04.17-.08.22.08.48.18.52.18.3.07.43-.18.78-.17.36,0,.56-.43.7-.6.13-.17.52-.19.28-.32-.24-.13-1.11-.56-1.32-.64-.21-.08-.16-.26.07-.26.23,0,1.13-.38,2.42-.92.63-.26,1.21-.48,1.73-.66.55-.2,1.03-.35,1.41-.46.73-.22.37-.21.79-.55.42-.34.25-.51.25-.51,0,0,.54-.46.56-.7.02-.24-.88.41-1.68.8Z"/><path class="cls-2" d="m409.21,27.94c-.69.28-1.81.49-2.92.53-.98.04-1.72.57-2.2.6,0-.13-.12-.16-.29-.28-.18-.13-.25-.25-.45-.13-.1.05-.15.16-.19.28-.48-.06-1.05-.89-2.07-1.23-1.05-.36-2.07-.88-2.65-1.34-.58-.46-1.18-1.15-1.21-.96-.03.19.32.67.32.67,0,0-.17.11.1.46.27.35-.02.28.53.59.28.16.64.37,1.05.64.38.24.82.53,1.27.86.94.67,1.59,1.15,1.77,1.19.18.05.19.2,0,.23-.18.02-.96.21-1.18.27-.22.06.09.14.17.31.08.16.16.56.45.61.29.06.34.29.6.29.03,0,.19-.02.36-.04.05.11.14.2.28.25.2-.32.25-.06.48-.08.03,0,.09-.03.14-.06.18.08.39.17.42.18.25.08.36-.13.65-.1.29.03.49-.32.61-.46.12-.14.44-.13.25-.25s-.89-.52-1.05-.59c-.17-.07-.12-.22.07-.21.19,0,.95-.26,2.04-.64.53-.18,1.02-.33,1.46-.46.47-.13.87-.23,1.19-.31.62-.14.31-.16.68-.42.36-.26.23-.41.23-.41,0,0,.47-.35.5-.55.03-.2-.74.29-1.43.57Z"/></g><g><path class="cls-2" d="m720.76,355.67c-3.3,2.28-11.61,2.13-16.27,1.48,2.48-.24,4.92-1.42,6.83-2.32-2.12.67-4.94-1.31-7.5-3.52.44.11.89.23,1.33.37-1.81-.78-3.55-1.93-4.44-3.77,3.52,1.52,6.74,1.54,10.48,1.66-1.04-.16-2.44-1.57-3.62-2.34,4.06,1.51,6.97-3.88,6.97-3.88-7.2.13-14.35-5.53-14.35-5.53,5.63,1.01,10.82.59,11.76-1.84-1.36,1.57-4.08-2.24-6.16-1.37,1.19-.73,2.14-1.88,2.6-3.2-2.04.19-3.94,1.06-6.04.98,1.88-.91,2.96-3.29,3.42-5.15-2.67.33-5.39,1.27-8.1,1.14,1.36-.16,2.55-1.21,3.32-2.35-6.93,1.52-7.97-.54-8.74-.71.59-.06,12.08,1.29,15.44-1.04-2.39-1.29-7.04-1.3-9.34-2.82,3.82,1.25,8.68.76,12.02-.64-1.42-.23-3.07-.21-4.42-.56,5.51-.3,9.4-1.57,11.13-4.62-2.8,1.93-9.84,1.81-13.8,1.26,2.11-.21,4.17-1.21,5.79-1.97-3.4,1.07-12.13,1.98-14.77-.42,1.33,0,2.68-.09,3.87-.47-1.19,0-2.31-.12-3.38-.34.3-.27.6-.56.9-.89-1.24.05-2.48.03-3.72.04-.02,0-.05-.02-.07-.03.71-.1,1.31-.47,1.9-.88,1.27.12,2.56.2,3.86.31-2.08-1.07-4.61-2.13-7.03-3,5.64,1.03,9.03,1.94,14.87.74-2.84-.46-5.34-.93-7.51-2.09,3.32.07,5.74-1.25,7.69-2.6-2.15.97-5.57,1.14-8.29.85-.78-.08-1.46-.23-2.1-.41.53-.2,1.01-.49,1.42-.9-1.12.26-2.21.39-3.2.34-.83-.29-1.67-.58-2.65-.8-.05-.03-.1-.07-.15-.11,1.62.03,3.24.01,4.86.02-2.14-.23-4.47-.71-6.09-1.58-.09-.19-.16-.4-.23-.62.46,0,.91-.02,1.36-.04,2.25.72,4.58.11,7.18.16-.89-.32-1.66-1.01-2.43-1.39,2.26.12,4.44-.76,6.67-.93-.99-.23-1.94-.64-2.87-.99,3.95-2.69,6.48-5.6,7.55-10.57-2.21,2.23-4.72,2.5-7.85,3.11,1.23-.73,2.12-2.45,2.25-3.77-2.16,1.19-5.89,3.3-8.46,2.8-1.82-.35-3.5-2.42-4.72-3.75,1.05-.04,2.11-.03,3.16,0-1.04-.31-1.76-1.06-2.71-1.45,2.22,1.23,5.92-.45,8.1-1.19-.53-.39-1.17-1.17-1.61-1.57,1.81.02,4.54-.36,5.31-2.32-.98.84-2.68.83-3.86.46,2.34-2.28,7.83-6.98,6.24-10.65-3.4,1.88-6.44,3.81-10.49,3.47,1.96-.81,2.46-3.41,3.88-4.92-2.76.84-6.42.76-7.12-2.53,1.27.04,2.42-.31,3.63-.49-1.11-.55-2.25-1.22-3.12-2.09,4.18-.41,8.34-4.12,8.98-8.44-2.99,1.95-4.66,2.88-8.33,2.46.96-.46,2.33-.96,3.15-1.85-1.37.24-2.8-.51-4.03-.93,1.95-.32,3.54-1.58,5.24-2.37-3.27,1.45-4.77.64-7.8-.93,1.16.06,2.22-.39,3.35-.45-1.05-.18-2.02-.64-3.08-.71,1.57-.08,3.09-.86,4.5-1.43-2.17.76-9.41-2.31-5.85-4.16-.46-.59-.85-1.26-1.47-1.7.93-.32,1.93-.24,2.89-.29-4.35-.37-3.59-13.11-3.9-15.26-.19.35-.34.87-.48,1.48,0-.95,0-1.48,0-1.48,0,0-.8,1.19-.8,1.75.11.97.22,2.4-.77,3.24-.77.65-2.13.8-3.01,1.12.91.04,2.02.03,2.84.18-.57.3-1.28.5-1.89.77.61.34,1.49.42,2.28.3-2.13.99-2.72,3.34-6.63,3.56.53.14,2.49.67,3.31.1-.08,1.01-2.1,1.21-3.23,1.36.97.4,1.71,1.06,2.95,1.05-1.44.56-1.78.85-3.41.5.24.2.42.64.73.86-1.23.1-2.62.3-3.79.12,1.26,2.13,5.68,1.91,8.78,1.84-.87.5-1.73,1.02-2.66,1.46.98-.08,1.98-.14,2.96-.17-.26,1.64-5.86,1.66-7.35,1.98.96.26,1.86.64,2.93.77-2.22,1.25-2.61,1.41-5.22,1.59.72.27,1.35.67,2.18.78-1.79.05-3.51.7-5.29.45.88,2.81,4.47,3.02,7.8,2.91-.51.51-1.49.68-2.27,1.03,1.15-.13,2.17.26,3.21-.02-1.29,1.43-3.95,2.09-5.96,1.76,1.09.06,2.13.69,3.41.59-1.28,1.18-3.99,1.87-5.78,1.64,3.68,1.25,4.79.24,8.2-.46-.23,1.52-1.19,2.35-2.83,2.37.67.17,1.57.26,2.31.42-1.67,1.13-6.14.31-7.97-.11.8.81.61,2.2,1.76,2.7,1.17.51-4.51.87-3.47,1.32-1.3.73-3.06.85-4.45.55,1.06.82,4.42,1.94,4.42,1.94,0,0-.8,1.64-2.69,1.34.91.57,3.03.26,4.09.69-1.07.11-.16.17-1.37.3.98.03,1.74.96,6.53-.57-.62.92-2.72,2.41-3.93,2.54,1.09.77,3.45.73,2.89.91,1.91-.16,1.97.71,2.83,1.17-1.25,2.1-7.49,4.35-9.84,4.49.67.33,1.35.74,1.88,1.24-2.01.66-4.32.34-6.39.52,1.94,2.55,3.65,3.88,6.69,4.43-1.19.88-2.69,1.46-4.11,1.9.76-.07,3.54-.16,4.98-.24-.28,1.17-.92,2.49-2.08,3.18,1.52-.64,4.73,2.15,5.91.97-.04.97-.55,1.9-.99,2.82,1.09-.75,2.35-1.13,3.47-1.81,1.35-.82,2.37-2.21,3.64-2.93,0,.66.1,1.37-.05,2.04.96-.86,1.95-1.7,2.77-2.64-2.13,3.99-5.69,5.89-10.7,6.98.57.09,1.27.54,1.91.63-2.86,2.06-5.21,3.05-7.1,3.43.55-1.13,1-2.36,1.34-3.72-2.91,2.59-6.22,2.91-10.34,3.62,1.62-.85,2.79-2.85,2.96-4.38-2.85,1.38-7.75,3.83-11.14,3.26-2.39-.41-4.61-2.81-6.22-4.36,1.38-.05,2.78-.04,4.17-.01-1.37-.36-2.32-1.23-3.57-1.69,2.92,1.43,7.8-.52,10.67-1.38-.7-.45-1.54-1.36-2.12-1.82,2.38.02,5.97-.42,6.99-2.69-1.3.98-3.53.96-5.08.54,3.08-2.65,10.32-8.11,8.21-12.37-4.48,2.18-8.48,4.42-13.82,4.04,2.59-.94,3.25-3.96,5.11-5.72-3.64.98-8.46.89-9.38-2.94,1.67.05,3.19-.36,4.78-.57-1.46-.64-2.96-1.42-4.11-2.43,5.5-.47,10.99-4.79,11.82-9.8-3.94,2.27-6.14,3.34-10.96,2.86,1.27-.53,3.07-1.11,4.15-2.15-1.8.28-3.69-.59-5.31-1.08,2.57-.38,4.66-1.83,6.89-2.76-4.3,1.68-6.28.75-10.28-1.08,1.53.08,2.93-.45,4.42-.52-1.38-.21-2.66-.74-4.06-.82,2.07-.09,4.06-1,5.92-1.67-2.86.88-12.39-2.69-7.7-4.84-.17-.19-.33-.38-.49-.58,1.97-.19,4.01-.65,5.82-1.08,1.36-.32,2.75-.86,4.14-1.04-3.86.4-6.75-1.22-10.13-2.63,1.93-.14,3.89-.41,5.83-.48-2.51-1-5.19-1.72-7.49-3.11.91-.4,2.36-.32,3.36-.43.78-.09,1.55-.2,2.33-.29-1.76-.23-3.56-.33-5.3-.67.83-.08,1.8-.15,2.6-.34-.56-.28-1.43-.59-2.11-.6,1.49-.19,3.03-.31,4.53-.26-1.12-.45-2.31-.71-3.48-1.04,0-.41.04-.8.05-1.18.57,0,1.12-.04,1.63-.13-.3-.82-1.52-1.71-2.02-2.54-.34-.56-.6-1.14-.87-1.72-.39-1.15-.7-2.32-1.04-3.48-.56-1.89-1.29-3.73-1.8-5.62.48,1.3-.21,6.05-.98,9.51-.81,1.26-1.9,2.37-3.31,3.09.76.15,1.54.29,2.31.38-.03.07-.07.15-.1.19.03.02.06.05.09.07-1.03.52-2.46.72-3.46,1.03,1.19.05,2.66.03,3.74.22-.76.35-1.68.59-2.49.9.81.39,1.96.49,3,.34-2.81,1.15-3.58,3.88-8.73,4.13.7.16,3.28.78,4.35.12-.11,1.17-2.76,1.41-4.25,1.58,1.27.47,2.25,1.23,3.88,1.22-1.9.65-2.34.99-4.49.58.31.24.55.74.97,1.01-1.62.12-3.45.34-5,.14,1.66,2.47,7.48,2.22,11.57,2.14-1.15.59-2.28,1.18-3.51,1.7,1.29-.09,2.6-.17,3.9-.2-.34,1.9-7.72,1.93-9.68,2.3,1.27.3,2.45.75,3.86.9-2.93,1.45-3.44,1.64-6.87,1.84.95.31,1.77.78,2.87.91-2.36.05-4.62.82-6.96.52,1.16,3.26,5.89,3.51,10.27,3.39-.68.6-1.97.79-2.98,1.2,1.51-.15,2.86.3,4.23-.02-1.7,1.67-5.21,2.43-7.85,2.04,1.44.07,2.8.8,4.49.68-1.68,1.38-5.25,2.17-7.62,1.9,4.85,1.45,6.31.28,10.8-.54-.3,1.77-1.56,2.74-3.73,2.75.88.2,2.06.3,3.04.49-2.2,1.31-8.09.36-10.49-.13,1.06.94.8,2.56,2.32,3.14,1.54.59-5.93,1.01-4.57,1.53-1.71.85-4.03.98-5.86.63,1.39.96,5.82,2.26,5.82,2.26,0,0-1.06,1.91-3.54,1.56,1.19.67,4,.31,5.39.81-1.4.13-.21.19-1.8.35,1.29.03,2.29,1.11,8.61-.67-.82,1.07-3.59,2.8-5.17,2.95,1.43.89,4.54.85,3.81,1.06,2.51-.18,2.59.82,3.73,1.36-1.64,2.44-9.87,5.05-12.96,5.22.88.38,1.77.86,2.48,1.44-2.65.76-5.69.39-8.42.6,2.56,2.97,4.81,4.51,8.81,5.15-1.56,1.02-3.55,1.7-5.42,2.2,1-.09,4.67-.18,6.56-.28-.37,1.36-1.21,2.9-2.74,3.7,2-.75,6.22,2.5,7.78,1.12-.05,1.12-.72,2.2-1.3,3.27.62-.37,1.34-.23,2.09,0-.83.91-1.84,1.64-3.23,1.91.75.11,1.67.62,2.51.74-8.78,5.6-13.96,4.41-16.2,3.24,2.24,3.34,5.99,4.39,9.57,5.19-2.26.81-5.25,1.69-7.7,1.6,2.84,1.42,3.89.47,7.29.93-.91,1.75-5.51,4.16-5.51,4.16,0,0,4.74,2.04,11.54-.06,2.9-.99,5.51-1.4,7.89-3.21.02.22.08.44.11.66-2.83,2.52-6.07,4.71-9.72,4.71,1.98.29,4.05.37,6.1.37-2.01,1.48-5.83,2.21-9.26,2.54,2.28-.01,4.56.02,6.84-.03-3.5.6-5.54,1.84-9.23,2.19-3.58.34-8.08.14-10.92-.99,2.58,1.56,5.77,3.1,10.13,3.02-2.86,1.35-6.16,1.9-9.89,2.43,7.69,1.39,12.16.33,19.59-.86-3.14.99-6.42,2.2-9.13,3.43-3.88-.89-7.64-1.69-11.2-2.35-.22-.48-.42-1.34-.42-1.34.9.63,3.69.63,3.69.63,0,0-.67-.27-1.96-1.51-1.16-1.11-2.72-3.66-2.72-3.66.45.4,1.26.29,1.26.29-.63-.8-1.8-4.02-1.8-4.02.54.29,2.25.52,2.25.52,0,0-.72-.17-1.62-1.38-.9-1.2-1.44-4.82-1.44-4.82.27.29,2.34.69,2.34.69,0,0-.45-.23-1.35-1.38s-2.52-4.76-2.52-4.76c.45.4,1.62.52,1.62.52,0,0-.36-.29-1.26-1.49-.9-1.2-1.89-4.47-1.89-4.47.45.23,1.44.23,1.44.23,0,0-1.16-1.24-1.81-2.39-.86-1.49-1.53-3.58-1.53-3.58-.54,1.55-2.42,4.76-2.42,4.76.54-.23,1.33-.89,1.33-.89,0,0-.08.08-.71,1.35-.63,1.26-2.25,3.21-2.25,3.21.45-.06,1.44-.92,1.44-.92,0,0-.09,2.01-.72,3.33-.45.94-1.04,1.88-1.34,2.34-.26-.23-.75-.74-1.48-1.8-1.13-1.64-3.16-6.81-3.16-6.81.56.57,2.03.74,2.03.74,0,0-.45-.41-1.58-2.13-1.13-1.72-2.37-6.4-2.37-6.4.56.33,1.81.33,1.81.33,0,0-.79-.25-1.47-1.93-.68-1.68-2.15-6.35-2.15-6.35-.68,2.21-3.62,5.82-3.62,5.82.68-.33,1.92-1.48,1.92-1.48,0,0-.34,1.07-1.13,2.87-.79,1.8-2.82,4.59-2.82,4.59.56-.08,1.81-1.31,1.81-1.31,0,0-.11,2.87-.9,4.76-.79,1.89-1.92,3.77-1.92,3.77.79-.08,2.03-.49,2.03-.49,0,0-.27,1.37-.61,2.82-.33-.36-.79-.94-1.4-1.86-1.33-2.02-3.72-8.37-3.72-8.37.66.71,2.39.91,2.39.91,0,0-.53-.5-1.86-2.62-1.33-2.12-2.79-7.86-2.79-7.86.66.4,2.13.4,2.13.4,0,0-.93-.3-1.73-2.37-.8-2.07-2.52-7.81-2.52-7.81-.8,2.72-4.25,7.16-4.25,7.16.8-.4,2.26-1.82,2.26-1.82,0,0-.4,1.31-1.33,3.53-.93,2.22-3.32,5.65-3.32,5.65.66-.1,2.13-1.61,2.13-1.61,0,0-.13,3.53-1.06,5.85-.74,1.85-1.72,3.68-2.1,4.35-.15-.23-.31-.48-.5-.78-1.07-1.72-2.24-6.37-2.24-6.37.53.33,1.71.33,1.71.33,0,0-.75-.25-1.39-1.92-.64-1.68-2.74-7.48-2.74-7.48-.37,1.27-1.43,4.24-2.27,6.54-1-1.94-2.02-5.98-2.02-5.98.53.33,1.71.33,1.71.33,0,0-.75-.25-1.39-1.92-.64-1.68-2.74-7.48-2.74-7.48-.64,2.21-3.38,9.55-3.38,9.55.64-.33,1.42-1.21,1.42-1.21-.28,3.27-1.07,6.13-1.81,8-.18.46-.39.93-.59,1.36-.27-1.27-.48-2.64-.61-4.1,0,0,.84.96,1.53,1.31,0,0-2.94-7.99-3.63-10.38,0,0-2.25,6.31-2.93,8.14-.69,1.82-1.49,2.09-1.49,2.09,0,0,1.26,0,1.83-.36,0,0-1.26,5.06-2.4,6.93-.53.86-.9,1.41-1.16,1.76-.3-.62-.61-1.32-.89-2.02-.8-2.04-1.65-5.15-1.94-8.7,0,0,.84.96,1.53,1.31,0,0-2.94-7.99-3.63-10.38,0,0-2.25,6.31-2.93,8.14-.69,1.82-1.49,2.09-1.49,2.09,0,0,1.26,0,1.83-.36,0,0-1.26,5.06-2.4,6.93-1.14,1.87-1.6,2.31-1.6,2.31,0,0,1.49-.18,2.06-.8,0,0-1.22,3.31-2.3,5.65-.41-.63-.99-1.57-1.45-2.53-.8-1.63-1.65-4.12-1.94-6.96,0,0,.84.77,1.53,1.05,0,0-2.94-6.38-3.63-8.3,0,0-2.25,5.05-2.93,6.5-.69,1.46-1.49,1.67-1.49,1.67,0,0,1.26,0,1.83-.28,0,0-1.16,3.72-2.26,5.34-.33-.3-.92-.92-1.78-2.16-1.39-2.01-3.9-8.34-3.9-8.34.7.7,2.51.9,2.51.9,0,0-.56-.5-1.95-2.61-1.39-2.11-2.92-7.84-2.92-7.84.7.4,2.23.4,2.23.4,0,0-.97-.3-1.81-2.36-.84-2.06-2.64-7.79-2.64-7.79-.84,2.71-4.45,7.14-4.45,7.14.84-.4,2.37-1.81,2.37-1.81,0,0-.42,1.31-1.39,3.52-.97,2.21-3.48,5.63-3.48,5.63.7-.1,2.23-1.61,2.23-1.61,0,0-.14,3.52-1.11,5.83-.71,1.68-1.63,3.35-2.09,4.14-.16-.17-.62-.7-1.51-2.05-1.13-1.71-2.37-6.35-2.37-6.35.56.33,1.8.33,1.8.33,0,0-.79-.24-1.46-1.91s-2.89-7.45-2.89-7.45c-.68,2.2-3.57,9.51-3.57,9.51.68-.33,1.5-1.2,1.5-1.2-.29,3.26-1.13,6.1-1.92,7.97-.68,1.62-1.62,3.25-1.86,3.65-.17-.4-.35-.83-.5-1.26-.67-1.82-.76-4.59-.76-4.59,0,0,1.05,1.19,1.53,1.27,0,0-1.72-2.69-2.39-4.43-.67-1.74-.96-2.77-.96-2.77,0,0,1.05,1.11,1.63,1.42,0,0-2.49-3.48-3.06-5.62,0,0-1.24,4.51-1.82,6.13-.57,1.62-1.24,1.86-1.24,1.86,0,0,1.05,0,1.53-.32,0,0-1.05,4.51-2.01,6.17-.96,1.66-1.34,2.06-1.34,2.06,0,0,1.24-.16,1.72-.71,0,0-1.72,4.98-2.68,6.57-.01.02-.03.04-.04.07-.09-.24-.17-.48-.23-.7-.45-1.56-.99-4.69-.99-4.69,0,0,.99.37,1.62.45,0,0-.9-1.71-1.53-3.43s-.72-4.32-.72-4.32c0,0,.99,1.12,1.44,1.19,0,0-1.62-2.53-2.25-4.17-.63-1.64-.65-1.81-.65-1.81,0,0,.75.58,1.28.54,0,0-1.59-4.52-2.13-6.54,0,0-.44,1.55-.98,3.08-.54,1.53-1.79,3.51-1.79,3.51,0,0,.99,0,1.44-.3,0,0-1.85,6.43-2.75,7.99s-1.26,1.94-1.26,1.94c0,0,1.17-.15,1.62-.67,0,0-.6,1.74-1.28,3.44-1.2-2.16-3.18-7.89-3.18-7.89.59.69,2.13.88,2.13.88,0,0-.47-.49-1.66-2.55-1.18-2.06-2.49-7.64-2.49-7.64.59.39,1.89.39,1.89.39,0,0-.83-.29-1.54-2.3s-2.25-7.59-2.25-7.59c-.71,2.64-3.79,6.95-3.79,6.95.71-.39,2.01-1.76,2.01-1.76,0,0-.36,1.27-1.18,3.43-.83,2.15-2.96,5.48-2.96,5.48.59-.1,1.89-1.57,1.89-1.57,0,0-.12,3.43-.95,5.68-.83,2.25-2.01,4.51-2.01,4.51.83-.1,2.13-.59,2.13-.59,0,0-.71,4.11-1.3,6.17-.42,1.45-1.42,3.47-1.98,4.55-.49-1.24-.9-2.44-.9-2.44.35.4,1.25.52,1.25.52,0,0-.28-.29-.97-1.49s-1.46-4.47-1.46-4.47c.35.23,1.11.23,1.11.23,0,0-.89-1.25-1.39-2.39-.66-1.49-1.18-3.58-1.18-3.58-.42,1.55-1.86,4.76-1.86,4.76.42-.23,1.02-.89,1.02-.89,0,0-.06.08-.54,1.35-.49,1.26-1.73,3.21-1.73,3.21.35-.06,1.11-.92,1.11-.92,0,0-.07,2.01-.55,3.33-.03.08-.06.15-.09.23-.03-.04-.05-.08-.08-.12-1.13-1.71-3.16-7.11-3.16-7.11.56.6,2.03.77,2.03.77,0,0-.45-.43-1.58-2.23-1.13-1.8-2.37-6.68-2.37-6.68.56.34,1.8.34,1.8.34,0,0-.79-.26-1.47-2.02-.68-1.76-2.89-7.85-2.89-7.85-.68,2.31-3.57,10.02-3.57,10.02.68-.34,1.5-1.27,1.5-1.27-.29,3.43-1.13,6.43-1.92,8.4-.79,1.97-1.92,3.94-1.92,3.94.79-.09,2.03-.51,2.03-.51,0,0-.68,3.6-1.24,5.4-.56,1.8-2.25,4.63-2.25,4.63,1.13-.34,1.99-.74,1.99-.74,0,0,.03,1.17-.53,3.31-.25.97-.74,1.94-1.19,2.73-.74-1.41-1.46-2.99-1.46-2.99.45.4,1.62.52,1.62.52,0,0-.36-.29-1.26-1.49s-1.89-4.47-1.89-4.47c.45.23,1.44.23,1.44.23,0,0-1.16-1.24-1.81-2.39-.86-1.49-1.53-3.58-1.53-3.58-.54,1.55-2.42,4.76-2.42,4.76.54-.23,1.33-.89,1.33-.89,0,0-.08.08-.71,1.35-.63,1.26-2.25,3.21-2.25,3.21.45-.06,1.44-.92,1.44-.92,0,0-.09,2.01-.72,3.33s-1.53,2.64-1.53,2.64c.63-.06,1.62-.34,1.62-.34,0,0-.54,2.41-.99,3.61-.45,1.2-1.8,3.1-1.8,3.1.9-.23,1.59-.5,1.59-.5,0,0,.03.78-.42,2.22s-1.8,2.93-1.8,2.93c.72-.06,1.89-.8,1.89-.8,0,0-.09.29-.63,1.61-.13.33-.37.7-.66,1.09-17,2.54-35.16,5.88-45.68,7.48,17.18-.71,38.65-1.09,50.79,1.51,18.22,3.91,36.55-3.28,44.04,2.73,12,9.63,40.23,7,40.23,7-2.19-1.81-8.23-2.69-12.21-4.41-5.51-2.38-8.9-5.33-8.9-5.33h10.12c1.42,0,3.47.2,5.85.53-.01.27-.02.43-.02.43.1.05,1.49.1,2.76-.02,6.09.98,13.53,2.58,18.9,4.07,8.5,2.34,23.03-.49,37.6,3.42,7.16,1.92,28.05,1.81,51.33,2.31-3.12.78-7.04,1.08-9.35,2.19,3.8.13,6.54,1.05,10.63.7,4-.34,7.32-1.47,10.98-2.19-.03,1.63-5.34,2.97-7.84,3.62,3.57.2,6.8-.31,10.29-.57-4.59.87-7.69,2.87-12.97,2.79,2.02,1.14,5.99.56,8.75.35-5.17,1.3-12.32,2.66-17.77,1.26,2.6,1.33,7.25,1.98,10.93,1.91-2.72,1.22-5.67,1.68-8.55,2.63,1.24.26,2.79.23,4.31.19-5.35.89-14.9,2.96-20.42,1.27,2.33.97,4.74,2.05,7.37,2.66,3.6.83,7.81.5,11.48.61-3.28.72-6.13.85-9.61.78,6.24,1.41,16.17,4.33,21.58.27-.75,1.53-3.24,1.92-5.2,2.84,2.83.15,2.77,1.18,3.08,1.23-4.54,3.3-7.86.95-17.69,1.46,0,0,7.98,3.94,10.9,3.89-6.22,3.2-12.27-.99-20.93-1.17,1.05.37,1.71,1.41,2.33,2.5-1.17-.12-2.4-.27-3.64-.46-6.48-1.01-15.46-1.81-27.49-2.22-12.03-.4-31.12.19-40.35,1.85-11.14,2.01-33.93,4.11-44.91,5.79-19.81,3.04-81.62,5.86-81.62,5.86,0,0,16.36,1.9,42.38,1.21,13.59-.36,24.07.44,30.62-.27-7.52,1.68-13.96,4.52-13.96,4.52,0,0,10.64,2.91,31.35.2,8.23-1.08,48.09-14.13,61.18-16.15,13.1-2.02,35.9,2.02,35.9,2.02,0,0-9.2,1.42-18.45,2.19-9.25.77-20.89,6.71-20.89,6.71,0,0,12.93-2.02,29.22-2.25,5.6-.08,10.16-.65,14.33-1.36,5.02,1.33,10.77,2.41,15.93,1.05-1.77.76-3.44,1.69-5.42,1.84,5.72,1.3,13.15,2.99,18.83.71-.36.86-1.52,1.53-2.77,1.99,3.95-.58,8.61-1.02,12.07-2.34-.48.66-.98,1.23-1.67,1.42,2.32.39,4.69,1.68,7.82-.54l-.08,2.47c-8.93.2-16.32.57-16.32.57,0,0,6.79,3.31,13.09,5.97,6.29,2.66,13.7,6.7,13.7,6.7,0,0-17.4-3.24-29.24-4.04-7.08-.48-11.45.29-16.9,1.02,3.07.99,27.51,6.88,38.18,7.67,10.92.81,25.76-.2,36.11-.2s21.37-.94,21.37-.94c0,0-23.83-3.43-33.16-4.38-6.34-.65-9.99-2-12.78-3.56l-.49-4.48c3.4-.4,8.79-.6,15.05-1,12.59-.81,5.61.22,28.38-3.5,22.76-3.71,31.68-4.27,31.68-4.27,0,0-13.14-2.34-28.87-2.57l-.36-14.62c4.38,2,8.74,2.57,16.75-.15,2.18-.16,4.1-.64,6.48-.73-2.82-1.52-8.31-1.53-11.01-3.33,4.5,1.47,10.23.89,14.18-.75-1.68-.27-3.62-.25-5.21-.66,6.49-.35,11.09-1.85,13.12-5.45Zm-134.16,25.3c-.6.19-1.29.32-2.13.4.72-.13,1.43-.26,2.13-.4Zm67.42-62.95c3.14.06,5.67-.72,7.8-1.74.8.17,1.65.27,2.59.25-2.18,1.16-4.68,1.63-7.51,2.09,5.84,1.19,9.23.28,14.87-.74-2.42.87-4.95,1.92-7.03,3,3.18-.26,6.26-.34,9.11-1.36-2.28,1.78-5.65,3.18-9.62,3.15,1.19.38,2.54.47,3.87.47-2.64,2.4-11.37,1.48-14.77.42,1.62.76,3.69,1.76,5.79,1.97-2.39.33-5.92.51-8.95.17,1.42-.04,2.81-.17,4.08-.53-1.56.01-3.05-.14-4.45-.39.4-.32.79-.65,1.19-1.03-1.63.05-3.27.03-4.9.04-.03-.01-.06-.02-.1-.03.93-.12,1.73-.54,2.5-1.02,1.67.14,3.37.24,5.09.36-2.73-1.25-6.07-2.47-9.25-3.48,7.43,1.19,11.89,2.25,19.59.86-3.74-.53-7.03-1.08-9.89-2.43Zm7.67,50.44c.58.13,1.17.27,1.75.43-1.4-.53-2.76-1.22-3.88-2.12,1.91.12,3.8-.02,5.51-.62.19.02.38.03.57.05-.38.57-1.12,1.04-1.91,1.36,2.07-.34,4.39-.63,6.5-1.15.39.01.77.02,1.16.03-.2-.03-.41-.09-.62-.17,2.18-.59,4.07-1.46,5.12-2.96.03,1.2-1.12,2.78-2.74,3.3,2.39-.39,3.1,1.1,4.54-.22l-.48,9c-4.86.57-10.72.33-14.64-.15,3.27-.28,6.48-1.65,9-2.69-2.8.77-6.51-1.52-9.88-4.09Zm4.79-31.25c1.14-.04,2.32-.19,3.3-.27-2.76.79-6.24,1.58-9.51,1.57,2.52-.18,4.8-.57,6.22-1.3Zm-1.22-.73c-3.32-.98-8.18-1.2-10.77-2.72,4.45,1.29,9.98.98,14.24-.23-1.23.51-2.65.93-3.57,1.2,2.71.17,5.16-.26,7.81-.49-2.82.61-4.91,1.83-7.72,2.25Zm4.63-3.51c-.95-.11-1.95-.18-2.94-.27,1.39-.36,2.75-.77,4.17-1.09,0,.49-.51.94-1.23,1.36Zm-12.24,5.66c2.01.73,4.7,1.08,6.94,1.03-1.15.59-2.36.97-3.59,1.33-2.46.44-4.94.93-7.4.83,1.79-.18,3.35-1.41,4.37-2.74-9.12,1.76-10.5-.62-11.51-.83.46-.04,5.89.49,11.19.37Zm11.62,8.27c-.45,1.04-1.72,1.47-2.97,2-.34-.11-.69-.22-1.06-.34,1.51-.21,2.9-.7,4.03-1.66Zm-6.77,8.11c-.31.18-.62.33-.93.46-1.26-.63-2.32-1.23-3.11-1.7,1.54.68,3.12,1.25,4.04,1.24Zm-7.57,26.49c5.93,1.71,13.47,1.04,18.67-.88-2.21-.31-4.77-.29-6.87-.77,4.03-.19,7.5-.69,10.33-1.59l-.18,3.32c-5.09.4-9.26,1.28-13.02,2.28-3.26-.6-6.78-1.1-8.95-2.37Zm-10.59-70.27c2.97.84,6.03.13,9.45.19-1.17-.38-2.18-1.17-3.21-1.62,2.98.14,5.84-.88,8.78-1.08-1.3-.27-2.56-.74-3.79-1.15,2.95-1.77,5.28-3.65,7.02-5.97,1.17.57,2.43.94,3.66,1.25-1.72.69-3.98,1.46-5.85,1.38,2.16,1.22,2.95.4,5.54.8-.69,1.5-4.19,3.58-4.19,3.58,0,0,3.6,1.76,8.76-.05,2.2-.85,4.19-1.2,5.99-2.77.02.19.06.38.09.57-2.15,2.17-4.61,4.05-7.38,4.05,1.5.25,3.07.32,4.63.32-1.52,1.28-4.43,1.91-7.03,2.19,1.73-.01,3.47.01,5.2-.02-2.66.51-4.2,1.58-7.01,1.88-2.72.29-6.14.12-8.29-.85,1.08.74,2.31,1.47,3.74,1.97-2.34.31-4.96.31-7.22.1-1.03-.1-1.93-.27-2.77-.47.69-.23,1.33-.57,1.87-1.05-1.47.31-2.9.45-4.21.39-1.09-.34-2.2-.67-3.49-.93-.07-.04-.13-.08-.19-.12,2.13.03,4.27.01,6.4.02-2.82-.27-5.89-.82-8.02-1.83-.11-.23-.22-.46-.3-.72.6,0,1.2-.02,1.8-.05Zm-22.1,20.29c-1.69,1.17-3.84,2.18-6.33,2.84-1.81-.44-3.61-.87-5.39-1.28,4.08-.29,8.04-.4,11.71-1.56Zm-199.62-16.11c.07.07.25.15.49.23-.02.05-.03.1-.05.15-.07.19-.16.4-.26.61-.12-.59-.18-1-.18-1Zm21.19-7.89c.1.14.52.3.92.43-.02.08-.03.16-.05.24-.13.53-.31,1.06-.52,1.57-.22-1.17-.35-2.25-.35-2.25Zm.99,4.3s-.01.05-.05.17c-.01-.03-.03-.07-.04-.1.05-.04.09-.07.09-.07Zm45.74-10.25c.05.07.17.13.32.21-.07.16-.14.32-.22.48-.07-.42-.1-.69-.1-.69Zm-22.29,6.56c-.38-1.68-.36-2.61-.36-2.61,0,0,.32.16.81.36-.12.71-.27,1.5-.45,2.25Zm-10.02-4.25c-.11-.54-.2-1.06-.28-1.55.26-.11.48-.22.55-.32,0,0-.09.82-.27,1.88Zm8.29,19.08s-.01.06-.03.14c-.06,0-.12,0-.18,0,.08-.05.14-.1.2-.15Zm52.56-12.6c-.1-.21-.19-.41-.26-.6-.15-.4-.32-.91-.47-1.44.53-.18,1.01-.38,1.14-.55,0,0-.14,1.16-.4,2.59Zm29.58-15.55c.05.03.11.07.17.09-.02.25-.05.5-.08.74-.1-.26-.19-.49-.26-.67.06-.06.12-.12.17-.17Zm22.83,23.49c.05.03.11.07.18.1-.02.08-.05.15-.08.23-.06-.2-.1-.32-.1-.32Zm.66-2.02c-.14-.31-.28-.65-.41-1.04.32-.12.52-.21.52-.21,0,0,.01.43-.11,1.25Zm-65.26-5.28c-.11-.33-.18-.54-.18-.54.07.04.16.09.26.13-.02.13-.05.26-.08.41Zm78.17,8.27c.34.21,1.05.39,1.67.52-.05.17-.1.36-.16.56-.15.48-.4.96-.67,1.39-.47-1.3-.84-2.47-.84-2.47Zm1.36,3.84c-.05-.13-.11-.27-.16-.4.24-.13.4-.23.4-.23,0,0-.05.14-.24.64Zm.43-3.83c-.22-.22-.46-.5-.73-.85.52-.16.87-.29.87-.29,0,0,.01.4-.14,1.15Zm-1.11,5.32s.01,0,.01.01c0,0,0,0,0,0,0,0-.01-.02-.01-.02Zm.96-12.53c-.08.12-.13.19-.13.19.63-.06,1.62-.34,1.62-.34,0,0-.54,2.41-.99,3.61-.29.77-.94,1.81-1.37,2.47-1.12-1.76-1.79-6.85-1.79-6.85.27.33,1.98.76,2.66.92Zm-13.64-2.72c-.17.72-.36,1.42-.54,1.96-.25.77-.73,1.74-1.18,2.57-.67-2.57-1.04-5.57-1.04-5.57.28.35,1.84.8,2.77,1.04Zm-16.09-5.53s-.25-.24-.83-1.1c.91-.16,2.07-.56,2.07-.56,0,0-.64,3.38-1.25,5.61-.94-2.09-1.91-4.69-1.91-4.69.53.57,1.92.74,1.92.74Zm-16.53-6.48s-.04.19-.1.5c-.04-.14-.08-.28-.12-.43.13-.04.22-.07.22-.07Zm-7.94,3.23s-.31.84-.75,1.96c-.15-.29-.39-.75-.66-1.29.47-.12,1.09-.32,1.41-.67Zm-.87,2.27c-.33.83-.72,1.78-1.11,2.66-.36-1.6-.64-3.15-.64-3.15,0,0,.97.34,1.75.49Zm-12.81,2.76c-.22.44-.42.83-.61,1.11-.08.13-.16.23-.23.35-.25-.97-.44-1.76-.44-1.76,0,0,.63.18,1.27.3Zm-10.16-3.97s-.02.03-.03.04c-1.14,1.49-1.6,1.85-1.6,1.85,0,0,1.49-.14,2.06-.64,0,0-1.14,2.47-2.19,4.32-.91-2.7-1.44-6.68-1.44-6.68.32.39,2.32.9,3.2,1.11Zm-18.12-7.06c-.15.27-.25.43-.25.43.97-.1,2.51-.6,2.51-.6,0,0-.69,3.49-1.34,5.71-1.15-1.98-2.85-6.25-2.85-6.25.48.48,1.6.67,1.93.72Zm-11.12,4.82s-.54-1.02-1.09-2.3c.79-.1,1.94-.48,1.94-.48,0,0-.68,3.42-1.24,5.13-.13.38-.31.81-.51,1.25-.41-1.73-.82-4.07-.82-4.07,0,0,1.05.4,1.72.47Zm-10.42,4.35s-.06.49-.16,1.22c-.13-.27-.28-.57-.42-.87.28-.12.5-.24.58-.34Zm-10.98-3.65c-.11.24-.22.47-.32.67-.08-.59-.13-.97-.13-.97.07.1.23.2.45.31Zm-12.79,4.33s.03,1.02-.36,2.9c-.09-.14-.19-.29-.3-.48-.24-.39-.54-1.07-.83-1.79.87-.33,1.49-.64,1.49-.64Zm-8.45-1.14c-.29.64-.53,1.1-.53,1.1.49-.06,1.25-.34,1.25-.34,0,0-.35,2-.67,3.26-.52-2.1-.81-4.42-.81-4.42.1.13.4.27.77.4Zm-12.94,10.13s-.06.24-.37,1.15c-.13-.18-.26-.39-.4-.63.44-.27.77-.52.77-.52Zm216.26,74.84l-.3-2.77c2.78,1.12,5.34,2.06,8.41,2.39-1.97.28-4.03.43-6.27.4-.61,0-1.22-.02-1.84-.02Z"/><path class="cls-2" d="m356.6,397.19s-22.02-2.02-44.79-5.74c-22.77-3.71-21.23-5.18-33.82-5.99-7.74-.5-57.04,6.63-57.04,6.63,0,0,29.39-.59,43.09-.79,9.99-.15,14.38,2.84,23.1,4.62-63-1.94-150.25,16.39-150.25,16.39,77.22-8.16,110.97-11.02,164.1-9.39,53.13,1.63,123.31,7.35,123.31,7.35,0,0-54.26-9.06-109.43-12.91,18.91.07,41.71-.17,41.71-.17Z"/><path class="cls-2" d="m167.76,376.77s13.75,2.02,28.19,2.19c14.44.16,22.63.54,34.48-.27,11.85-.81,33.63-2.08,33.63-2.08,0,0-12.36,3.09-20.2,6.29,14.52-1.64,30.4-3.12,35.29-3.62,9.33-.95,42.64,4.15,42.64,4.15,0,0-32.54-11.92-42.89-11.92s-18.8-.14-31.22,2.76c-10.67,2.49-21.18,4.33-29.51,2.51-8.33-1.82-31.06-1.97-31.06-1.97,0,0-5.96.15-12.44-.86-6.48-1.01-18.51-4.04-30.54-4.45-12.03-.4-28.69,5.66-28.69,5.66,0,0-9.59-.46-19.41-.85,6.11-.84,10.48-2.76,12.64-6.38-4.37,2.85-15.38,2.67-21.57,1.86,3.29-.3,6.52-1.78,9.05-2.9-2.82.83-6.55-1.64-9.94-4.41.59.14,1.18.29,1.77.46-2.41-.98-4.7-2.42-5.89-4.72,4.67,1.91,8.94,1.93,13.88,2.08-1.38-.2-3.23-1.97-4.79-2.92,5.38,1.88,9.24-4.85,9.24-4.85-9.55.16-19.02-6.93-19.02-6.93,7.46,1.26,14.34.74,15.58-2.31-1.81,1.96-5.41-2.8-8.16-1.71,1.58-.92,2.84-2.35,3.45-4.01-2.7.24-5.22,1.32-8,1.23,2.49-1.14,3.93-4.12,4.53-6.45-3.54.41-7.15,1.59-10.73,1.43,1.8-.2,3.37-1.52,4.39-2.95-7.77,1.61-9.95.01-11.06-.65.81.02,1.6.05,2.35.07,23.08.78,26.66,2.39,36.9,7.23,10.99,5.2,27.29,5.61,27.29,5.61l-16.42-9.71c11.34,1.56,32.59-6.77,39.47-9.12,6.88-2.34,9.11-3.39,21.25,2.86,12.14,6.25,26.72,5,26.72,5,0,0-6.48,6.73-14.98,9.07-8.5,2.34-23.48,9.92-23.48,9.92,0,0,37.95-9.71,45.24-8.93,7.29.78,17.39,8.67,32.16,12.74,14.59,4.02,56.67,7.42,56.67,7.42,0,0-14.68-5.45-37.21-7.69v-2.68c3.6,1.66,8.76,2.78,15.34.52,1.79-.14,3.37-.53,5.32-.61-2.31-1.26-6.83-1.27-9.05-2.76,3.7,1.22,8.41.74,11.65-.62-1.38-.22-2.98-.21-4.29-.55,5.34-.29,9.11-1.53,10.78-4.52-2.71,1.89-9.54,1.77-13.37,1.23,2.04-.2,4.04-1.18,5.61-1.92-1.75.55-4.06-1.09-6.17-2.92.36.09.73.19,1.09.31-1.49-.65-2.91-1.6-3.65-3.13,2.89,1.26,5.54,1.28,8.61,1.38-.85-.13-2-1.3-2.97-1.94,1.58.59,2.94-.1,3.94-.99,3.78,1.38,7.51,3.04,11.43,4.5.54-.1,20.19,2.31,20.06,2.27-15.09-4.54-17.21-10.11-17.21-10.11,0,0,20.65,2.04,34.82,1.49,2.35-.09,5.4-.24,8.92-.42-11.94-1.54-20.97-2.86-38.88-7.64-1.25-.33-2.38-.63-3.45-.9-.23-.25-.61-.72-1.2-1.56-1.04-1.47-2.18-5.48-2.18-5.48.52.28,1.66.28,1.66.28,0,0-1.33-1.52-2.09-2.92-.99-1.83-1.77-4.38-1.77-4.38-.39,1.19-1.39,3.18-2.07,4.5-.13-.21-.26-.44-.38-.67-.46-.89-.95-2.24-1.13-3.78,0,0,.49.42.89.57,0,0-1.7-3.47-2.1-4.51,0,0-1.3,2.74-1.7,3.54-.04.08-.08.14-.12.21-.96.52-2.33.82-3.83.98-.57-1.07-1.13-2.57-1.34-4.29,0,0,.64.5,1.17.69,0,0-2.25-4.2-2.77-5.46,0,0-1.72,3.32-2.24,4.28-.11.2-.22.36-.34.5-1.06-.07-2.13-.2-3.16-.39-1.03-.18-1.99-.5-2.96-.85,1.93.19,3.87.15,6.34-.36-2.33-.38-4.39-.77-6.17-1.74,2.72.06,4.72-1.04,6.32-2.15-4.83.76-11.37-.58-12.18-.77-.04-.03-.08-.06-.12-.09,2.03.45,2.8.45,4,.02-.83-.09-1.72-.8-2.56-1.59,1.38.09,2.82-.17,4.39-.14-.73-.27-1.36-.83-2-1.15,1.86.1,3.65-.63,5.48-.77-.81-.19-1.6-.53-2.36-.82,3.25-2.23,5.32-4.64,6.2-8.77-1.81,1.85-3.88,2.08-6.45,2.58,1.01-.6,1.74-2.04,1.85-3.13-1.78.99-4.35.6-6.47.19-.84-.16-1.54-.97-2.17-1.85,1.65-.08,3.56-.89,4.83-1.33-.44-.32-.96-.97-1.32-1.3,1.49.02,3.73-.3,4.36-1.92-.81.7-2.2.68-3.17.38,1.92-1.89,3.52-2.89,5.73-7.03-2.79,1.56-5.89,1.35-9.22,1.08,1.61-.67,2.03-2.83,3.19-4.08-2.27.7-5.28.63-5.85-2.1,1.04.04,1.99-.26,2.99-.41-.91-.46-1.85-1.01-2.57-1.74,3.43-.34,6.86-3.42,7.38-7-2.46,1.62-3.83,2.39-6.84,2.04.79-.38,1.91-.79,2.59-1.53-1.12.2-2.3-.42-3.31-.77,1.6-.27,2.91-1.31,4.3-1.97-2.68,1.2-3.92.53-6.41-.77.96.05,1.83-.32,2.76-.37-.86-.15-1.66-.53-2.53-.59,1.29-.07,2.54-.71,3.7-1.19-1.46.51-5.71-1.1-5.59-2.55,1.81-.95,6.34-1.23,6.34-1.23-.11-.02-.22-.04-.34-.06-1.84-.39-4.12-1.39-5.31-1.95-.12-.13-.23-.28-.34-.44l4.64-.47s-1.57-.57-2.53-1.15c-.96-.57-2.98-3.27-1.81-3.04,1.17.23,1.81,0,1.81,0,0,0-3.57-3.03-3.62-4.63-.02-1.04-.04-1.85-.09-2.24-.15.29-.87,3.44-1.68,4.14-.63.54-1.75.67-2.47.93.74.04,1.66.02,2.33.15-.47.25-1.05.42-1.55.64.5.28,1.22.35,1.87.25-1.75.82-2.23,2.77-5.45,2.95.43.12,2.05.56,2.72.08-.07.84-1.72,1-2.65,1.13.79.33,1.41.88,2.42.87-1.19.47-1.46.7-2.8.41.19.17.34.53.6.72-1.01.08-2.15.25-3.12.1,1.03,1.77,4.67,1.59,7.22,1.53-.72.42-1.42.85-2.19,1.21.81-.07,1.62-.12,2.43-.14-.21,1.36-4.81,1.38-6.04,1.64.79.22,1.53.53,2.41.64-1.83,1.03-2.15,1.17-4.29,1.32.59.22,1.11.56,1.79.65-1.47.04-2.88.58-4.34.37.72,2.33,3.67,2.51,6.41,2.42-.42.43-1.23.56-1.86.86.94-.1,1.79.21,2.64-.01-1.06,1.19-3.25,1.74-4.9,1.46.9.05,1.75.57,2.8.49-1.05.98-3.27,1.55-4.75,1.36,3.03,1.04,3.94.2,6.74-.38-.19,1.26-.97,1.95-2.32,1.96.55.14,1.29.22,1.9.35-1.38.94-5.05.26-6.55-.09.66.67.5,1.83,1.45,2.24.96.42-3.7.72-2.85,1.09-1.06.61-2.52.7-3.66.45.87.68,3.63,1.61,3.63,1.61,0,0-.66,1.36-2.21,1.11.75.48,2.49.22,3.36.57-.88.09-.13.14-1.12.25.8.02,1.43.79,5.37-.48-.51.76-2.24,2-3.23,2.1.89.64,2.83.6,2.38.76,1.57-.13,1.62.59,2.33.97-1.03,1.74-6.16,3.61-8.08,3.73.55.27,1.11.62,1.55,1.03-1.65.55-3.55.28-5.26.43,1.59,2.12,3,3.22,5.5,3.68-.97.73-2.21,1.21-3.38,1.57.62-.06,2.91-.13,4.1-.2-.23.97-.76,2.07-1.71,2.64,1.25-.53,3.88,1.78,4.86.8-.03.8-.45,1.57-.81,2.34.89-.62,1.94-.94,2.85-1.5.89-.55,1.62-1.39,2.41-2.01-1.31,2.39-2.64,4.14-5.97,4.87.47.08,1.04.44,1.57.53-.38.28-.74.52-1.1.76-.82-1.73-2.16-5.01-2.16-5.01-.76,1.93-4.07,5.07-4.07,5.07.76-.29,2.16-1.29,2.16-1.29,0,0-.38.93-1.27,2.5-.17.3-.39.63-.64.97-1,.04-1.8-.13-2.4-.37-.1-.16-.21-.33-.33-.53-1.07-1.72-2.24-6.37-2.24-6.37.53.33,1.71.33,1.71.33,0,0-.75-.25-1.39-1.92-.64-1.68-2.74-7.48-2.74-7.48-.64,2.21-3.38,9.55-3.38,9.55.64-.33,1.42-1.21,1.42-1.21-.28,3.27-1.07,6.13-1.81,8-.5,1.27-1.15,2.52-1.52,3.21-1.03-1.85-2.12-6.16-2.12-6.16.53.33,1.71.33,1.71.33,0,0-.75-.25-1.39-1.92-.64-1.68-2.74-7.48-2.74-7.48-.64,2.21-3.38,9.55-3.38,9.55.64-.33,1.42-1.21,1.42-1.21-.28,3.27-1.07,6.13-1.81,8-.75,1.88-1.81,3.76-1.81,3.76.75-.08,1.92-.49,1.92-.49,0,0-.64,3.43-1.17,5.15-.53,1.72-2.13,4.41-2.13,4.41,1.07-.33,1.89-.71,1.89-.71,0,0,.03,1.12-.5,3.16-.06.22-.13.45-.21.67-.41-.53-.91-1.23-1.15-1.77-.44-.98-.96-2.94-.96-2.94,0,0,.96.23,1.57.28,0,0-.87-1.07-1.49-2.15-.61-1.07-1.26-2.71-1.49-4.58,0,0,.64.5,1.17.69,0,0-2.25-4.2-2.77-5.46,0,0-1.72,3.32-2.24,4.28-.52.96-1.14,1.1-1.14,1.1,0,0,.96,0,1.4-.19,0,0-.62,1.71-1.32,2.9-.09-.18-.16-.35-.22-.51-.51-1.33-1.11-3.99-1.11-3.99,0,0,1.11.32,1.82.38,0,0-1.01-1.45-1.72-2.91-.71-1.45-1.46-3.67-1.72-6.2,0,0,.74.68,1.35.93,0,0-2.6-5.69-3.21-7.4,0,0-1.99,4.5-2.59,5.8-.61,1.3-1.32,1.49-1.32,1.49,0,0,1.11,0,1.62-.25,0,0-1.11,3.61-2.12,4.93-1.01,1.33-1.42,1.64-1.42,1.64,0,0,1.32-.13,1.82-.57,0,0-1.08,2.36-2.04,4.02-.36-.45-.87-1.12-1.29-1.8-.71-1.16-1.46-2.93-1.72-4.96,0,0,.74.55,1.35.75,0,0-2.6-4.55-3.21-5.91,0,0-1.21,2.19-2.03,3.64-.81-1.45-2.01-4.62-2.01-4.62.4.42,1.43.54,1.43.54,0,0-.32-.3-1.11-1.56-.8-1.26-1.67-4.68-1.67-4.68.4.24,1.27.24,1.27.24,0,0-.56-.18-1.03-1.41-.48-1.23-1.51-4.65-1.51-4.65-.48,1.62-2.55,4.26-2.55,4.26.48-.24,1.35-1.08,1.35-1.08,0,0-.24.78-.8,2.1-.34.81-1.01,1.88-1.48,2.6-.1-.13-.2-.26-.31-.41-1.26-1.71-2.65-6.34-2.65-6.34.63.33,2.02.33,2.02.33,0,0-.88-.24-1.64-1.91-.76-1.67-2.39-6.3-2.39-6.3-.76,2.19-4.03,5.77-4.03,5.77.76-.33,2.14-1.46,2.14-1.46,0,0-.38,1.06-1.26,2.84-.88,1.79-3.15,4.55-3.15,4.55.63-.08,2.02-1.3,2.02-1.3,0,0-.13,2.84-1.01,4.71-.12.25-.24.49-.37.74-1.13-2.1-2.61-5.84-2.61-5.84.56.57,2.03.73,2.03.73,0,0-.45-.41-1.58-2.12-1.13-1.71-2.37-6.35-2.37-6.35.56.33,1.8.33,1.8.33,0,0-.79-.24-1.46-1.91-.68-1.67-2.89-7.45-2.89-7.45-.68,2.2-3.57,9.51-3.57,9.51.68-.33,1.5-1.2,1.5-1.2-.29,3.26-1.13,6.1-1.92,7.97-.68,1.62-1.62,3.25-1.86,3.65-.17-.4-.35-.83-.5-1.26-.67-1.82-.76-4.59-.76-4.59,0,0,1.05,1.19,1.53,1.27,0,0-1.72-2.69-2.39-4.43-.67-1.74-.96-2.77-.96-2.77,0,0,1.05,1.11,1.63,1.42,0,0-2.49-3.48-3.06-5.62,0,0-1.24,4.51-1.82,6.13-.57,1.62-1.24,1.86-1.24,1.86,0,0,1.05,0,1.53-.32,0,0-1.05,4.51-2.01,6.17s-1.34,2.06-1.34,2.06c0,0,1.24-.16,1.72-.71,0,0-1.72,4.98-2.68,6.57-.31.51-.57.89-.78,1.16-.27-1.57-.49-3.06-.49-3.06,0,0,.99.44,1.62.53,0,0-.9-2.04-1.53-4.07-.63-2.04-.72-5.14-.72-5.14,0,0,.99,1.33,1.44,1.42,0,0-1.62-3.01-2.25-4.96-.63-1.95-.65-2.15-.65-2.15,0,0,.75.69,1.28.64,0,0-1.59-5.38-2.13-7.77,0,0-.44,1.84-.98,3.66s-1.79,4.18-1.79,4.18c0,0,.99,0,1.44-.35,0,0-1.85,7.64-2.75,9.5s-1.26,2.3-1.26,2.3c0,0,1.17-.18,1.62-.8,0,0-.77,2.67-1.55,4.9-.23-.32-1-1.4-1.47-2.41-.73-1.57-1.31-3.76-1.31-3.76-.46,1.63-2.06,5-2.06,5,.46-.24,1.13-.93,1.13-.93,0,0-.06.09-.6,1.42-.31.76-.89,1.76-1.34,2.47-.83-1.93-1.52-4.3-1.52-4.3.59.32,1.89.32,1.89.32,0,0-.83-.24-1.54-1.85-.71-1.62-2.25-6.11-2.25-6.11-.71,2.13-3.79,5.6-3.79,5.6.71-.32,2.01-1.42,2.01-1.42,0,0-.36,1.02-1.18,2.76-.83,1.73-2.96,4.42-2.96,4.42.59-.08,1.89-1.26,1.89-1.26,0,0-.12,2.76-.95,4.57-.83,1.81-2.01,3.63-2.01,3.63.83-.08,2.13-.47,2.13-.47,0,0-.71,3.31-1.3,4.97-.15.42-.38.9-.63,1.38-.12-.18-.24-.38-.39-.62-.77-1.27-1.61-4.7-1.61-4.7.38.24,1.23.24,1.23.24,0,0-.98-1.31-1.54-2.51-.73-1.57-1.31-3.76-1.31-3.76-.46,1.63-2.06,5-2.06,5,.46-.24,1.13-.93,1.13-.93,0,0-.06.09-.6,1.42-.54,1.33-1.92,3.38-1.92,3.38.38-.06,1.23-.96,1.23-.96,0,0-.08,2.11-.61,3.5-.54,1.39-1.3,2.77-1.3,2.77.54-.06,1.38-.36,1.38-.36,0,0-.34,1.84-.67,3.17-.22-.2-.66-.68-1.36-1.76-1-1.57-2.81-6.52-2.81-6.52.5.55,1.81.71,1.81.71,0,0-.4-.39-1.41-2.04-1-1.65-2.11-6.13-2.11-6.13.5.31,1.61.31,1.61.31,0,0-.7-.24-1.31-1.85-.6-1.61-2.58-7.2-2.58-7.2-.6,2.12-3.19,9.19-3.19,9.19.6-.31,1.34-1.16,1.34-1.16-.26,3.15-1,5.89-1.71,7.7-.7,1.81-1.71,3.62-1.71,3.62.7-.08,1.81-.47,1.81-.47,0,0-.6,3.29-1.1,4.95-.74-1.43-1.55-3.38-1.55-3.38.4.38,1.43.49,1.43.49,0,0-.32-.27-1.12-1.42s-1.67-4.27-1.67-4.27c.4.22,1.27.22,1.27.22,0,0-1.02-1.19-1.6-2.28-.76-1.42-1.36-3.41-1.36-3.41-.48,1.48-2.14,4.54-2.14,4.54.48-.22,1.18-.84,1.18-.84,0,0-.07.08-.62,1.28-.56,1.2-1.99,3.06-1.99,3.06.4-.05,1.27-.88,1.27-.88,0,0-.08,1.92-.64,3.17-.25.56-.54,1.11-.79,1.56-.81-1.44-2.03-4.65-2.03-4.65.4.42,1.43.54,1.43.54,0,0-.32-.3-1.11-1.56-.8-1.26-1.67-4.68-1.67-4.68.4.24,1.27.24,1.27.24,0,0-.56-.18-1.03-1.41-.48-1.23-1.51-4.65-1.51-4.65-.48,1.62-2.55,4.26-2.55,4.26.48-.24,1.35-1.08,1.35-1.08,0,0-.24.78-.8,2.1-.56,1.32-1.99,3.36-1.99,3.36.4-.06,1.27-.96,1.27-.96,0,0-.08,2.1-.64,3.48-.56,1.38-1.35,2.76-1.35,2.76.56-.06,1.43-.36,1.43-.36,0,0-.48,2.52-.88,3.78,0,.01-.01.03-.01.04-.11-.15-.22-.32-.35-.52-.91-1.37-1.9-5.1-1.9-5.1.45.26,1.45.26,1.45.26,0,0-1.16-1.42-1.82-2.72-.86-1.7-1.54-4.08-1.54-4.08-.54,1.76-2.43,5.42-2.43,5.42.54-.26,1.34-1.01,1.34-1.01,0,0-.08.1-.71,1.53-.63,1.44-2.26,3.66-2.26,3.66.45-.07,1.45-1.05,1.45-1.05,0,0-.09,2.29-.72,3.79-.63,1.5-1.54,3.01-1.54,3.01.63-.07,1.63-.39,1.63-.39,0,0-.31,1.56-.65,2.91-5.22.65-11.85.63-14.35-1.52,1.77,0,3.55-.11,5.13-.59-1.57.01-3.07-.15-4.48-.42.4-.34.8-.7,1.19-1.11-1.64.06-3.29.03-4.93.04-.03-.01-.07-.02-.1-.04.94-.13,1.74-.59,2.52-1.1,1.68.15,3.39.25,5.12.39-2.75-1.35-6.11-2.67-9.31-3.75,7.48,1.28,11.97,2.43,19.71.93-3.76-.58-7.07-1.16-9.96-2.62,4.4.09,7.61-1.56,10.2-3.25-2.85,1.22-7.38,1.43-10.99,1.07-1.04-.11-1.94-.29-2.79-.51.7-.25,1.34-.61,1.88-1.13-1.48.33-2.92.49-4.24.42-1.1-.36-2.22-.72-3.52-1-.07-.04-.13-.09-.19-.13,2.15.04,4.3.01,6.45.03-2.84-.29-5.93-.89-8.07-1.98-.12-.24-.22-.5-.3-.78.6,0,1.21-.03,1.81-.06,2.99.9,6.07.14,9.51.2-1.18-.41-2.19-1.26-3.23-1.74,3,.15,5.88-.95,8.83-1.16-1.31-.29-2.57-.8-3.81-1.24,5.23-3.37,8.58-7.01,10.01-13.23-2.93,2.79-6.26,3.14-10.41,3.9,1.63-.91,2.81-3.07,2.98-4.72-2.87,1.49-7.8,4.13-11.21,3.51-2.41-.44-4.64-3.03-6.25-4.69,1.39-.05,2.8-.04,4.19-.01-1.38-.39-2.33-1.33-3.59-1.82,2.94,1.54,7.85-.56,10.74-1.49-.71-.48-1.55-1.47-2.13-1.96,2.4.03,6.01-.45,7.04-2.9-1.3,1.05-3.55,1.03-5.11.58,3.1-2.86,10.38-8.74,8.26-13.33-4.5,2.35-8.53,4.77-13.91,4.35,2.6-1.01,3.27-4.27,5.14-6.16-3.66,1.06-8.51.96-9.44-3.17,1.68.05,3.21-.39,4.81-.61-1.47-.69-2.98-1.53-4.14-2.62,5.53-.51,11.06-5.16,11.9-10.56-3.96,2.45-6.18,3.6-11.03,3.08,1.28-.57,3.09-1.2,4.18-2.31-1.81.3-3.71-.63-5.34-1.17,2.59-.4,4.69-1.98,6.94-2.97-4.33,1.82-6.32.81-10.34-1.17,1.54.08,2.94-.49,4.45-.56-1.39-.23-2.68-.8-4.09-.88,2.09-.1,4.09-1.08,5.96-1.8-2.88.95-12.47-2.89-7.75-5.21-.17-.2-.33-.41-.49-.62,1.98-.2,4.04-.7,5.86-1.16,1.37-.34,2.77-.92,4.16-1.12-3.89.44-6.79-1.31-10.19-2.83,1.94-.15,3.91-.45,5.86-.52-2.52-1.08-5.22-1.85-7.54-3.35.92-.43,2.38-.34,3.38-.46.78-.09,1.56-.21,2.34-.32-1.77-.25-3.59-.35-5.33-.72.83-.08,1.81-.16,2.61-.37-.57-.3-1.44-.64-2.12-.65,1.5-.2,3.05-.34,4.56-.28-1.13-.49-2.33-.76-3.5-1.12,0-.45.04-.86.05-1.27.57,0,1.13-.04,1.64-.14-.3-.89-1.53-1.84-2.04-2.73-.34-.6-.6-1.23-.88-1.86-.39-1.24-.71-2.5-1.05-3.75-.56-2.03-1.3-4.02-1.82-6.06.48,1.4-.22,6.52-.99,10.25-.82,1.36-1.91,2.56-3.34,3.33.76.16,1.55.31,2.32.41-.03.07-.07.16-.1.2.03.02.06.06.09.08-1.04.56-2.48.77-3.48,1.11,1.2.06,2.68.03,3.77.23-.76.38-1.69.63-2.5.96.81.42,1.97.53,3.02.37-2.83,1.24-3.6,4.18-8.79,4.45.7.18,3.3.84,4.38.13-.11,1.26-2.78,1.51-4.28,1.71,1.28.5,2.27,1.32,3.91,1.31-1.91.7-2.35,1.06-4.51.62.31.26.55.8.97,1.08-1.63.12-3.47.37-5.03.15,1.67,2.66,7.53,2.4,11.64,2.3-1.15.63-2.29,1.28-3.53,1.83,1.3-.1,2.62-.18,3.92-.21-.34,2.05-7.76,2.08-9.74,2.47,1.27.33,2.47.81,3.89.97-2.94,1.56-3.47,1.76-6.92,1.98.95.34,1.78.85,2.89.98-2.38.06-4.65.88-7.01.56,1.16,3.52,5.93,3.79,10.34,3.65-.68.64-1.98.85-3,1.29,1.52-.16,2.88.32,4.26-.02-1.71,1.79-5.24,2.62-7.9,2.2,1.44.08,2.82.86,4.52.74-1.69,1.48-5.28,2.34-7.66,2.05,4.88,1.56,6.35.3,10.86-.58-.31,1.9-1.57,2.95-3.75,2.96.89.21,2.08.33,3.06.52-2.22,1.42-8.14.39-10.56-.14,1.07,1.02.81,2.76,2.34,3.38,1.55.63-5.97,1.08-4.6,1.65-1.72.92-4.06,1.06-5.9.68,1.4,1.03,5.86,2.43,5.86,2.43,0,0-1.06,2.05-3.56,1.68,1.2.72,4.02.33,5.42.87-1.41.14-.21.21-1.81.38,1.3.03,2.3,1.2,8.66-.72-.83,1.15-3.61,3.02-5.2,3.17,1.44.96,4.57.91,3.83,1.14,2.53-.2,2.61.89,3.76,1.47-1.66,2.63-9.93,5.45-13.04,5.63.89.41,1.78.93,2.49,1.55-2.66.82-5.73.42-8.48.65,2.57,3.2,4.84,4.86,8.87,5.55-1.57,1.1-3.57,1.83-5.45,2.37,1.01-.09,4.69-.2,6.61-.3-.38,1.47-1.22,3.12-2.76,3.99,2.01-.8,6.26,2.69,7.83,1.21-.05,1.21-.73,2.37-1.31,3.53,1.44-.93,3.12-1.41,4.6-2.26,1.79-1.03,3.15-2.76,4.82-3.67,0,.83.14,1.72-.06,2.55,1.27-1.08,2.59-2.12,3.68-3.31-2.83,4.99-7.54,7.38-14.18,8.74.76.12,1.68.67,2.53.79-8.84,6.03-14.05,4.75-16.3,3.5,2.25,3.59,6.03,4.73,9.63,5.6-2.28.87-5.28,1.83-7.75,1.72,2.86,1.53,3.91.5,7.34,1-.92,1.88-5.55,4.48-5.55,4.48,0,0,4.77,2.2,11.61-.07,2.92-1.07,5.55-1.5,7.94-3.46.02.24.08.48.11.72-2.85,2.72-6.1,5.07-9.78,5.08,1.99.32,4.07.4,6.14.4-2.02,1.6-5.87,2.39-9.31,2.74,2.3-.01,4.59.02,6.89-.03-3.53.64-5.57,1.98-9.29,2.36-3.6.37-8.13.15-10.99-1.07,2.59,1.68,5.8,3.34,10.2,3.25-2.88,1.46-6.2,2.05-9.96,2.62,7.74,1.49,12.23.35,19.71-.93-3.2,1.09-6.56,2.41-9.31,3.75,4.21-.33,8.3-.42,12.08-1.7-1.81,1.34-4.16,2.5-6.87,3.21-5.78.48-12.99,1.25-19.67,2.02-.23-.06-.46-.12-.66-.18.15.06.3.13.45.2-3.63.42-7.1.84-10.08,1.2-.35-.16-.69-.33-.98-.52.12.2.26.4.39.59-5.39.66-9.07,1.15-9.07,1.15,0,0,3.86-.07,9.93-.15,2.66,2.68,7.31,3.87,13.5,4.19-1.79.43-3.98.42-5.86.7,4.43,1.75,10.87,2.36,15.93.8-3.04,1.91-9.21,1.92-12.37,3.54,3.83.14,6.58,1.13,10.7.76,4.03-.37,7.37-1.59,11.05-2.36-.03,1.75-5.38,3.2-7.89,3.9,3.59.22,6.84-.33,10.36-.62-4.62.94-7.74,3.09-13.05,3,2.03,1.23,6.03.61,8.81.38-5.2,1.41-12.39,2.86-17.88,1.36,2.62,1.44,7.3,2.13,11,2.05-2.74,1.31-5.71,1.81-8.61,2.83,1.25.28,2.81.24,4.33.2-5.39.96-14.99,3.19-20.55,1.37,2.34,1.04,4.77,2.21,7.41,2.86,3.62.9,7.85.54,11.55.65-3.3.78-6.17.92-9.67.84,6.28,1.52,16.27,4.66,21.72.29-.75,1.65-3.26,2.07-5.23,3.06,2.85.16,2.79,1.27,3.1,1.32-4.57,3.56-7.91,1.03-17.81,1.58,0,0,8.03,4.25,10.97,4.19-6.26,3.45-12.34-1.06-21.06-1.26,2.59.98,2.79,6.27,5.93,6.08-4.26,3.23-4.29,4.79-11.19,4.51,5.32,1.58,11.64,3.07,17.26,1.49-.19.09-.38.18-.58.27-6.85.91-11.66,1.82-11.66,1.82,0,0,2.49-.08,6.82-.09,5.75,1.4,13.2,3.2,18.91.75-.36.92-1.53,1.65-2.78,2.14,3.59-.56,7.77-1.01,11.12-2.14.96.06,1.94.12,2.93.18-.47.33-.99.6-1.56.77.99-.15,1.9-.39,2.76-.69,1.38.09,2.77.19,4.19.3.2.02.4.03.6.04v14.88c-1.41-.07-2.84-.09-4.3-.06-10.53.23-43.7,10.28-43.7,10.28,0,0,23.74-2.74,40.84-3.18-20.38,3.94-31.55,8.86-31.55,8.86,0,0,37-9.14,50.52-7.11,13.51,2.03,38.94,1.43,38.94,1.43,0,0-19.35-2.27-27.35-5.14-4.84-1.73-10.1-3.33-15.83-4.27v-15.28c.82.03,1.62.05,2.41.07,3.15,1.08,6.9,1.84,11.21,1.77-3.1,1.08-5.12,1.97-5.12,1.97l40.53-5.06s9.07-3.64,22.17-5.66c13.1-2.02,35.9,2.02,35.9,2.02Zm-42.63-57.29c-.02.07-.04.14-.07.21-.03-.04-.05-.08-.08-.12-.28-.45-.52-1.16-.73-1.94.7-.23,1.24-.48,1.24-.48,0,0,.02.82-.36,2.33Zm-.85,1.27c.08.05.18.1.3.15-.05.11-.1.21-.16.31-.09-.29-.14-.46-.14-.46Zm8.91-9.62c-.09-.22-.18-.44-.27-.66.2-.07.32-.12.32-.12,0,0,0,.27-.06.78Zm73.88-.92c-.09-.15-.17-.29-.23-.42-.14-.29-.28-.65-.42-1.03.47-.13.89-.27,1.01-.39,0,0-.13.82-.36,1.84Zm19.36,9.83c-.11-.15-.21-.3-.3-.46.33-.21.56-.39.56-.39,0,0-.05.19-.27.85Zm-.29.87c-.04.12-.08.25-.13.38-.21-.45-.26-.57-.26-.57,0,0,.16.08.39.19Zm56.61-9.67c.12-.01.24-.03.36-.05-.03.03-.05.06-.08.09-.09-.01-.19-.02-.28-.04Zm11.28-.27s-.73,2.2-1.39,3.01-.93,1-.93,1c0,0,.86-.08,1.19-.35,0,0-.85,1.72-1.51,2.73-.2-.3-.38-.6-.49-.86-.44-.98-.96-2.94-.96-2.94,0,0,.96.23,1.57.28,0,0-.32-.39-.7-.93,1.09-.45,1.98-1.04,2.65-1.81.2-.02.42-.06.57-.13Zm4.14,5.07c.15.03.32.07.5.1-.11.22-.23.48-.4.83-.04.07-.08.16-.12.24-.11-.38-.21-.74-.27-.98.1-.06.19-.12.29-.19Zm-50.53,32.77c.34-.04.66-.1.96-.19-.15.07-.38.17-.68.29-.09-.03-.19-.07-.28-.1Zm43.47-30.18s.23.07.58.17c-.07.33-.17.78-.3,1.24-.29-.92-.27-1.41-.27-1.41Zm-42.91-16.76c-.15-.33-.3-.67-.45-1.01.25.13.47.22.68.29-.07.24-.15.49-.24.72Zm-5.95,37.12c-.22.04-.44.06-.64.07.21-.02.42-.04.64-.07Zm6.3-38.3c-.29.04-.57.05-.85.05-.18-.42-.35-.83-.51-1.23.69-.28,1.69-1.04,1.69-1.04,0,0-.05,1.04-.33,2.22Zm-48.78-.15c-.02-.14-.05-.27-.07-.39.09-.02.18-.05.25-.07,0,0-.07.18-.19.46Zm-17.8-6.97s-.27,1.22-.62,2.56c-.19-.87-.34-1.7-.43-2.29.57-.13,1.06-.27,1.06-.27Zm-23.58,9.37s-.05.19-.14.5c-.02-.14-.03-.27-.05-.39.07-.03.14-.07.19-.1Zm-9.66-5.17s-.02-.05-.03-.07c0-.01.03-.02.04-.04,0,0,0,.04-.01.1Zm-23.83,24.93c-.07-.22-.14-.44-.21-.64.29-.19.52-.36.52-.36,0,0-.05.2-.31,1Zm-26.33,4.38s-.06.09-.09.14c-.06,0-.11,0-.17-.01.15-.07.26-.13.26-.13Zm3.37.44c.14-.06.25-.11.33-.14-.04.05-.08.1-.12.16-.07,0-.14-.01-.21-.02Zm139.57,11.55c3.89,1.01,9.66,2.73,13.59.59-.9,2.79-9.11,2.07-8.93,2.1,0,0,3.64,3.69,8.24,2.31-2.45,1.99-12.63.92-17.5.61-5.32-2.61-8.11-5.07-8.11-5.07,0,0,5,.25,12.71-.54Zm57.59-23.74s-.04.06-.29.56c-.04-.06-.09-.13-.14-.21.25-.2.44-.36.44-.36Zm-14.47-6.93c-.23.57-.57,1.32-.93,1.95-.9.1-1.85.16-2.79.17,1.16-.5,2.49-1.23,3.72-2.12Zm-36.57-10.61c.08.06.15.13.24.18-.47.57-.91,1.06-1.18,1.35-.51-1.26-.88-2.25-.88-2.25.45.48,1.51.67,1.82.72Zm-9.72,2.06s-.15.81-.37,1.85c-.22-.29-.54-.75-.99-1.46.66-.15,1.36-.39,1.36-.39Zm-.45,2.21c-.14.64-.3,1.34-.46,1.96-.58-1.42-1.03-2.62-1.03-2.62.34.37,1.03.56,1.49.66Zm-12.46,15.14s.28.09.72.21c-.16.36-.32.71-.5,1.03-.24-.8-.22-1.24-.22-1.24Zm-18.58-10.37c-.19.31-.37.59-.54.79-.07.09-.14.17-.2.25-.22-.69-.39-1.25-.39-1.25,0,0,.55.12,1.13.22Zm-7.27-7.62s-.01.02-.02.03c0-.03,0-.05,0-.05,0,0,.02.01.03.02Zm-6.71-9.55s-.02.44-.09,1.05c-.13-.16-.28-.34-.44-.55.29-.25.53-.5.53-.5Zm-.19,1.75c-.09.52-.21,1.07-.39,1.56-.58-1.2-.99-2.14-.99-2.14.32.29.89.47,1.39.58Zm-23.01-.63s-.54-1.02-1.09-2.3c.79-.1,1.94-.48,1.94-.48,0,0-.68,3.42-1.24,5.13-.13.38-.31.81-.51,1.25-.41-1.73-.82-4.07-.82-4.07,0,0,1.05.4,1.72.47Zm-10.42,4.35s-.28,2.44-.78,4.48c-.22-.61-.42-1.22-.55-1.75-.13-.55-.27-1.26-.41-1.99.67-.2,1.56-.5,1.73-.74Zm-10.57-.87c-.21.6-.42,1.16-.61,1.62-.3-1.01-.51-1.86-.51-1.86.3.19.89.23,1.12.24Zm-4.96,1.63s-.02.52-.1,1.21c-.12-.23-.25-.48-.37-.75.26-.23.47-.46.47-.46Zm-11.2,12.92c-.05.09-.1.18-.15.27-.12-.31-.19-.51-.19-.51.09.1.21.18.34.24Zm-6.71,5.06c-.05.2-.1.38-.15.54-.32,1.06-1.18,2.62-1.45,3.1-.54-2.04-.84-4.54-.84-4.54.25.33,1.91.77,2.44.9Zm-20.14-2.26s-.04.19-.1.48c-.09-.11-.18-.23-.28-.37.22-.06.38-.11.38-.11Zm-.21.94c-.18.77-.43,1.83-.67,2.5-.02.06-.05.12-.07.18-.38-1.5-.6-3.21-.6-3.21.14.17.8.38,1.34.53Zm-9.8.47c-.05.11-.1.21-.15.32-.14-.35-.23-.57-.23-.57.1.1.23.18.38.25Zm-8.04,5.97s-.03.08-.04.12c-.05.15-.11.31-.18.47-.68-.06-1.34-.13-1.93-.21.72-.07,1.44-.2,2.14-.38Zm-1.22,6.95c-.08.16-.16.32-.25.47-1.51-.08-2.98-.14-4.43-.2-1.06-.29-2.01-.65-2.77-1.13,2.31.71,4.9.95,7.45.86Zm-73.06,4.2c3.69-.04,7.94-.09,12.5-.13.37.07.74.12,1.12.16-3.65.48-9.28.7-13.62-.03Z"/><path class="cls-2" d="m371.4,364.84c26.76,2.67,38.09-2.82,55.86-2.03,17.77.79,41.87.51,41.87.51,0,0-30.78-6.95-49.18-3.64s-48.55,5.17-48.55,5.17Z"/></g></svg>